font.ufo
<glyph name="asterisk" format="2">
	<unicode hex="002A"/>
	<advance width="600"/>
	<outline>
		<contour>
			<point x="182" y="101" type="line"/>
			<point x="300" y="251" type="line"/>
			<point x="418" y="101" type="line"/>
			<point x="471" y="138" type="line"/>
			<point x="368" y="299" type="line"/>
			<point x="526" y="368" type="line"/>
			<point x="507" y="427" type="line"/>
			<point x="342" y="378" type="line"/>
			<point x="332" y="561" type="line"/>
			<point x="268" y="561" type="line"/>
			<point x="258" y="378" type="line"/>
			<point x="93" y="427" type="line"/>
			<point x="74" y="368" type="line"/>
			<point x="232" y="299" type="line"/>
			<point x="129" y="138" type="line"/>
		</contour>
	</outline>
</glyph>
<glyph name="plus" format="2">
	<unicode hex="002B"/>
	<advance width="600"/>
	<outline>
		<contour>
			<point x="256" y="99" type="line"/>
			<point x="344" y="99" type="line"/>
			<point x="344" y="288" type="line"/>
			<point x="522" y="288" type="line"/>
			<point x="522" y="372" type="line"/>
			<point x="344" y="372" type="line"/>
			<point x="344" y="561" type="line"/>
			<point x="256" y="561" type="line"/>
			<point x="256" y="372" type="line"/>
			<point x="78" y="372" type="line"/>
			<point x="78" y="288" type="line"/>
			<point x="256" y="288" type="line"/>
		</contour>
	</outline>
</glyph>
<glyph name="greater" format="2">
	<unicode hex="003E"/>
	<advance width="600"/>
	<outline>
		<contour>
			<point x="102" y="39" type="line"/>
			<point x="482" y="291" type="line"/>
			<point x="482" y="373" type="line"/>
			<point x="102" y="625" type="line"/>
			<point x="102" y="518" type="line"/>
			<point x="385" y="334" type="line"/>
			<point x="385" y="330" type="line"/>
			<point x="102" y="146" type="line"/>
		</contour>
	</outline>
</glyph>
<glyph name="E" format="2">
	<unicode hex="0045"/>
	<advance width="600"/>
	<outline>
		<contour>
			<point x="103" y="0" type="line"/>
			<point x="532" y="0" type="line"/>
			<point x="532" y="98" type="line"/>
			<point x="219" y="98" type="line"/>
			<point x="219" y="291" type="line"/>
			<point x="476" y="291" type="line"/>
			<point x="476" y="389" type="line"/>
			<point x="219" y="389" type="line"/>
			<point x="219" y="556" type="line"/>
			<point x="522" y="556" type="line"/>
			<point x="522" y="654" type="line"/>
			<point x="103" y="654" type="line"/>
		</contour>
	</outline>
	<anchor name="aboveUC" x="327" y="674"/>
	<anchor name="baseLC" x="324" y="0"/>
	<anchor name="belowLC" x="328" y="-20"/>
	<anchor name="ogonekUC" x="430" y="0"/>
</glyph>
<glyph name="F" format="2">
	<unicode hex="0046"/>
	<advance width="600"/>
	<outline>
		<contour>
			<point x="119" y="0" type="line"/>
			<point x="235" y="0" type="line"/>
			<point x="235" y="273" type="line"/>
			<point x="492" y="273" type="line"/>
			<point x="492" y="371" type="line"/>
			<point x="235" y="371" type="line"/>
			<point x="235" y="556" type="line"/>
			<point x="537" y="556" type="line"/>
			<point x="537" y="654" type="line"/>
			<point x="119" y="654" type="line"/>
		</contour>
	</outline>
	<anchor name="aboveUC" x="338" y="674"/>
	<anchor name="baseLC" x="174" y="0"/>
	<anchor name="belowLC" x="180" y="-20"/>
</glyph>
<glyph name="L" format="2">
	<unicode hex="004C"/>
	<advance width="600"/>
	<outline>
		<contour>
			<point x="120" y="0" type="line"/>
			<point x="542" y="0" type="line"/>
			<point x="542" y="98" type="line"/>
			<point x="235" y="98" type="line"/>
			<point x="235" y="654" type="line"/>
			<point x="120" y="654" type="line"/>
		</contour>
	</outline>
	<anchor name="aboveUC" x="191" y="674"/>
	<anchor name="baseLC" x="342" y="0"/>
	<anchor name="belowLC" x="342" y="-20"/>
	<anchor name="center" x="178" y="342"/>
</glyph>
<glyph name="M" format="2">
	<unicode hex="004D"/>
	<advance width="600"/>
	<outline>
		<contour>
			<point x="65" y="0" type="line"/>
			<point x="165" y="0" type="line"/>
			<point x="165" y="264" type="line" smooth="yes"/>
			<point x="165" y="333"/>
			<point x="155" y="468"/>
			<point x="148" y="532" type="curve"/>
			<point x="151" y="532" type="line"/>
			<point x="194" y="380" type="line"/>
			<point x="265" y="173" type="line"/>
			<point x="331" y="173" type="line"/>
			<point x="403" y="380" type="line"/>
			<point x="447" y="532" type="line"/>
			<point x="450" y="532" type="line"/>
			<point x="444" y="468"/>
			<point x="433" y="333"/>
			<point x="433" y="264" type="curve" smooth="yes"/>
			<point x="433" y="0" type="line"/>
			<point x="535" y="0" type="line"/>
			<point x="535" y="654" type="line"/>
			<point x="407" y="654" type="line"/>
			<point x="328" y="399" type="line"/>
			<point x="302" y="301" type="line"/>
			<point x="298" y="301" type="line"/>
			<point x="271" y="399" type="line"/>
			<point x="193" y="654" type="line"/>
			<point x="65" y="654" type="line"/>
		</contour>
	</outline>
	<anchor name="aboveUC" x="300" y="674"/>
	<anchor name="baseLC" x="483" y="0"/>
	<anchor name="belowLC" x="300" y="-20"/>
</glyph>
<glyph name="O" format="2">
	<unicode hex="004F"/>
	<advance width="600"/>
	<outline>
		<contour>
			<point x="300" y="-12" type="curve" smooth="yes"/>
			<point x="452" y="-12"/>
			<point x="557" y="111"/>
			<point x="557" y="330" type="curve" smooth="yes"/>
			<point x="557" y="545"/>
			<point x="452" y="666"/>
			<point x="300" y="666" type="curve" smooth="yes"/>
			<point x="148" y="666"/>
			<point x="43" y="545"/>
			<point x="43" y="330" type="curve" smooth="yes"/>
			<point x="43" y="111"/>
			<point x="148" y="-12"/>
		</contour>
		<contour>
			<point x="300" y="89" type="curve" smooth="yes"/>
			<point x="216" y="89"/>
			<point x="162" y="176"/>
			<point x="162" y="330" type="curve" smooth="yes"/>
			<point x="162" y="480"/>
			<point x="216" y="565"/>
			<point x="300" y="565" type="curve" smooth="yes"/>
			<point x="384" y="565"/>
			<point x="438" y="480"/>
			<point x="438" y="330" type="curve" smooth="yes"/>
			<point x="438" y="176"/>
			<point x="384" y="89"/>
		</contour>
	</outline>
	<anchor name="aboveUC" x="300" y="674"/>
	<anchor name="baseLC" x="300" y="0"/>
	<anchor name="belowLC" x="300" y="-20"/>
	<anchor name="hornLC" x="422" y="644"/>
	<anchor name="ogonekUC" x="300" y="0"/>
</glyph>
<glyph name="R" format="2">
	<unicode hex="0052"/>
	<advance width="600"/>
	<outline>
		<contour>
			<point x="84" y="0" type="line"/>
			<point x="200" y="0" type="line"/>
			<point x="200" y="256" type="line"/>
			<point x="302" y="256" type="line" smooth="yes"/>
			<point x="438" y="256"/>
			<point x="543" y="319"/>
			<point x="543" y="460" type="curve" smooth="yes"/>
			<point x="543" y="606"/>
			<point x="438" y="654"/>
			<point x="302" y="654" type="curve" smooth="yes"/>
			<point x="84" y="654" type="line"/>
		</contour>
		<contour>
			<point x="200" y="348" type="line"/>
			<point x="200" y="561" type="line"/>
			<point x="290" y="561" type="line" smooth="yes"/>
			<point x="380" y="561"/>
			<point x="429" y="535"/>
			<point x="429" y="460" type="curve" smooth="yes"/>
			<point x="429" y="386"/>
			<point x="380" y="348"/>
			<point x="290" y="348" type="curve" smooth="yes"/>
		</contour>
		<contour>
			<point x="281" y="287" type="line"/>
			<point x="438" y="0" type="line"/>
			<point x="569" y="0" type="line"/>
			<point x="365" y="356" type="line"/>
		</contour>
	</outline>
	<anchor name="aboveUC" x="302" y="674"/>
	<anchor name="baseLC" x="140" y="0"/>
	<anchor name="belowLC" x="320" y="-20"/>
</glyph>
<glyph name="U" format="2">
	<unicode hex="0055"/>
	<advance width="600"/>
	<outline>
		<contour>
			<point x="301" y="-12" type="curve" smooth="yes"/>
			<point x="445" y="-12"/>
			<point x="528" y="71"/>
			<point x="528" y="250" type="curve" smooth="yes"/>
			<point x="528" y="654" type="line"/>
			<point x="417" y="654" type="line"/>
			<point x="417" y="241" type="line" smooth="yes"/>
			<point x="417" y="134"/>
			<point x="372" y="89"/>
			<point x="301" y="89" type="curve" smooth="yes"/>
			<point x="231" y="89"/>
			<point x="188" y="134"/>
			<point x="188" y="241" type="curve" smooth="yes"/>
			<point x="188" y="654" type="line"/>
			<point x="72" y="654" type="line"/>
			<point x="72" y="250" type="line" smooth="yes"/>
			<point x="72" y="71"/>
			<point x="158" y="-12"/>
		</contour>
	</outline>
	<anchor name="aboveUC" x="300" y="674"/>
	<anchor name="baseLC" x="300" y="0"/>
	<anchor name="belowLC" x="300" y="-20"/>
	<anchor name="hornLC" x="508" y="664"/>
	<anchor name="ogonekUC" x="300" y="0"/>
</glyph>
<glyph name="backslash" format="2">
	<unicode hex="005C"/>
	<advance width="600"/>
	<outline>
		<contour>
			<point x="415" y="-160" type="line"/>
			<point x="514" y="-160" type="line"/>
			<point x="185" y="710" type="line"/>
			<point x="86" y="710" type="line"/>
		</contour>
	</outline>
</glyph>
<glyph name="underscore" format="2">
	<unicode hex="005F"/>
	<advance width="600"/>
	<outline>
		<contour>
			<point x="60" y="-152" type="line"/>
			<point x="540" y="-152" type="line"/>
			<point x="540" y="-62" type="line"/>
			<point x="60" y="-62" type="line"/>
		</contour>
	</outline>
</glyph>
<glyph name="f" format="2">
	<unicode hex="0066"/>
	<advance width="600"/>
	<outline>
		<contour>
			<point x="228" y="0" type="line"/>
			<point x="342" y="0" type="line"/>
			<point x="342" y="520" type="line" smooth="yes"/>
			<point x="342" y="589"/>
			<point x="375" y="627"/>
			<point x="450" y="627" type="curve" smooth="yes"/>
			<point x="490" y="627"/>
			<point x="522" y="620"/>
			<point x="558" y="606" type="curve"/>
			<point x="582" y="691" type="line"/>
			<point x="538" y="708"/>
			<point x="489" y="718"/>
			<point x="436" y="718" type="curve" smooth="yes"/>
			<point x="292" y="718"/>
			<point x="228" y="634"/>
			<point x="228" y="518" type="curve" smooth="yes"/>
		</contour>
		<contour>
			<point x="92" y="400" type="line"/>
			<point x="529" y="400" type="line"/>
			<point x="529" y="491" type="line"/>
			<point x="231" y="491" type="line"/>
			<point x="92" y="486" type="line"/>
		</contour>
	</outline>
	<anchor name="aboveUC" x="416" y="734"/>
	<anchor name="baseLC" x="296" y="0"/>
	<anchor name="belowLC" x="292" y="-20"/>
</glyph>
<glyph name="k" format="2">
	<unicode hex="006B"/>
	<advance width="600"/>
	<outline>
		<contour>
			<point x="90" y="0" type="line"/>
			<point x="206" y="0" type="line"/>
			<point x="206" y="128" type="line"/>
			<point x="559" y="491" type="line"/>
			<point x="431" y="491" type="line"/>
			<point x="210" y="264" type="line"/>
			<point x="206" y="264" type="line"/>
			<point x="206" y="706" type="line"/>
			<point x="90" y="706" type="line"/>
		</contour>
		<contour>
			<point x="454" y="0" type="line"/>
			<point x="580" y="0" type="line"/>
			<point x="354" y="314" type="line"/>
			<point x="287" y="242" type="line"/>
		</contour>
	</outline>
	<anchor name="aboveUC" x="171" y="734"/>
	<anchor name="belowLC" x="330" y="-20"/>
</glyph>
<glyph name="braceright" format="2">
	<unicode hex="007D"/>
	<advance width="600"/>
	<outline>
		<contour>
			<point x="102" y="-152" type="line"/>
			<point x="171" y="-152" type="line" smooth="yes"/>
			<point x="298" y="-152"/>
			<point x="356" y="-120"/>
			<point x="356" y="-14" type="curve" smooth="yes"/>
			<point x="356" y="58"/>
			<point x="346" y="102"/>
			<point x="346" y="168" type="curve" smooth="yes"/>
			<point x="346" y="204"/>
			<point x="374" y="242"/>
			<point x="487" y="243" type="curve"/>
			<point x="487" y="313" type="line"/>
			<point x="374" y="314"/>
			<point x="346" y="352"/>
			<point x="346" y="388" type="curve" smooth="yes"/>
			<point x="346" y="451"/>
			<point x="356" y="501"/>
			<point x="356" y="570" type="curve" smooth="yes"/>
			<point x="356" y="676"/>
			<point x="298" y="708"/>
			<point x="171" y="708" type="curve" smooth="yes"/>
			<point x="102" y="708" type="line"/>
			<point x="102" y="645" type="line"/>
			<point x="148" y="645" type="line" smooth="yes"/>
			<point x="240" y="645"/>
			<point x="261" y="625"/>
			<point x="261" y="565" type="curve" smooth="yes"/>
			<point x="261" y="510"/>
			<point x="256" y="454"/>
			<point x="256" y="393" type="curve" smooth="yes"/>
			<point x="256" y="323"/>
			<point x="280" y="292"/>
			<point x="351" y="280" type="curve"/>
			<point x="351" y="276" type="line"/>
			<point x="280" y="264"/>
			<point x="256" y="233"/>
			<point x="256" y="163" type="curve" smooth="yes"/>
			<point x="256" y="99"/>
			<point x="261" y="49"/>
			<point x="261" y="-9" type="curve" smooth="yes"/>
			<point x="261" y="-69"/>
			<point x="240" y="-89"/>
			<point x="148" y="-89" type="curve" smooth="yes"/>
			<point x="102" y="-89" type="line"/>
		</contour>
	</outline>
</glyph>
<glyph name="AE" format="2">
	<unicode hex="00C6"/>
	<advance width="600"/>
	<outline>
		<contour>
			<point x="-2" y="0" type="line"/>
			<point x="118" y="0" type="line"/>
			<point x="243" y="366" type="line" smooth="yes"/>
			<point x="265" y="430"/>
			<point x="289" y="497"/>
			<point x="311" y="565" type="curve"/>
			<point x="314" y="565" type="line"/>
			<point x="314" y="0" type="line"/>
			<point x="593" y="0" type="line"/>
			<point x="593" y="98" type="line"/>
			<point x="418" y="98" type="line"/>
			<point x="418" y="292" type="line"/>
			<point x="550" y="292" type="line"/>
			<point x="550" y="390" type="line"/>
			<point x="418" y="390" type="line"/>
			<point x="418" y="556" type="line"/>
			<point x="584" y="556" type="line"/>
			<point x="584" y="654" type="line"/>
			<point x="238" y="654" type="line"/>
		</contour>
		<contour>
			<point x="132" y="170" type="line"/>
			<point x="362" y="170" type="line"/>
			<point x="362" y="261" type="line"/>
			<point x="132" y="261" type="line"/>
		</contour>
	</outline>
	<anchor name="aboveUC" x="406" y="674"/>
	<anchor name="baseLC" x="466" y="0"/>
	<anchor name="belowLC" x="334" y="-20"/>
</glyph>
<glyph name="Oslash" format="2">
	<unicode hex="00D8"/>
	<advance width="600"/>
	<outline>
		<contour>
			<point x="27" y="7" type="line"/>
			<point x="96" y="-37" type="line"/>
			<point x="570" y="647" type="line"/>
			<point x="502" y="691" type="line"/>
		</contour>
		<component base="O"/>
	</outline>
	<anchor name="aboveUC" x="300" y="674"/>
	<anchor name="baseLC" x="300" y="0"/>
</glyph>
<glyph name="eogonek" format="2">
	<unicode hex="0119"/>
	<advance width="600"/>
	<outline>
		<contour>
			<point x="418" y="-226" type="curve" smooth="yes"/>
			<point x="456" y="-226"/>
			<point x="496" y="-212"/>
			<point x="522" y="-190" type="curve"/>
			<point x="494" y="-138" type="line"/>
			<point x="482" y="-148"/>
			<point x="465" y="-155"/>
			<point x="445" y="-155" type="curve" smooth="yes"/>
			<point x="415" y="-155"/>
			<point x="389" y="-139"/>
			<point x="389" y="-105" type="curve" smooth="yes"/>
			<point x="389" y="-57"/>
			<point x="420" y="-24"/>
			<point x="522" y="46" type="curve"/>
			<point x="483" y="118" type="line"/>
			<point x="439" y="93"/>
			<point x="397" y="77"/>
			<point x="345" y="77" type="curve" smooth="yes"/>
			<point x="243" y="77"/>
			<point x="174" y="132"/>
			<point x="174" y="246" type="curve" smooth="yes"/>
			<point x="174" y="356"/>
			<point x="237" y="414"/>
			<point x="318" y="414" type="curve" smooth="yes"/>
			<point x="395" y="414"/>
			<point x="441" y="365"/>
			<point x="441" y="268" type="curve"/>
			<point x="463" y="294" type="line"/>
			<point x="144" y="294" type="line"/>
			<point x="144" y="212" type="line"/>
			<point x="537" y="212" type="line"/>
			<point x="539" y="225"/>
			<point x="542" y="247"/>
			<point x="542" y="270" type="curve" smooth="yes"/>
			<point x="542" y="406"/>
			<point x="461" y="503"/>
			<point x="315" y="503" type="curve" smooth="yes"/>
			<point x="183" y="503"/>
			<point x="61" y="406"/>
			<point x="61" y="245" type="curve" smooth="yes"/>
			<point x="61" y="83"/>
			<point x="180" y="-12"/>
			<point x="330" y="-12" type="curve" smooth="yes"/>
			<point x="342" y="-12"/>
			<point x="368" y="-13"/>
			<point x="410" y="5" type="curve"/>
			<point x="404" y="14" type="line"/>
			<point x="347" y="-30"/>
			<point x="308" y="-71"/>
			<point x="308" y="-130" type="curve" smooth="yes"/>
			<point x="308" y="-194"/>
			<point x="354" y="-226"/>
		</contour>
	</outline>
	<anchor name="aboveLC" x="313" y="512"/>
</glyph>
<glyph name="Hbar" format="2">
	<unicode hex="0126"/>
	<advance width="600"/>
	<outline>
		<contour>
			<point x="6" y="484" type="line"/>
			<point x="594" y="484" type="line"/>
			<point x="594" y="553" type="line"/>
			<point x="76" y="553" type="line"/>
			<point x="6" y="547" type="line"/>
		</contour>
		<component base="H"/>
	</outline>
</glyph>
<glyph name="Lslash" format="2">
	<unicode hex="0141"/>
	<advance width="600"/>
	<outline>
		<contour>
			<point x="41" y="176" type="line"/>
			<point x="132" y="227" type="line"/>
			<point x="224" y="266" type="line"/>
			<point x="470" y="399" type="line"/>
			<point x="430" y="470" type="line"/>
			<point x="224" y="358" type="line"/>
			<point x="132" y="318" type="line"/>
			<point x="1" y="246" type="line"/>
		</contour>
		<component base="L"/>
	</outline>
	<anchor name="aboveUC" x="191" y="674"/>
	<anchor name="belowLC" x="342" y="-20"/>
</glyph>
<glyph name="lslash" format="2">
	<unicode hex="0142"/>
	<advance width="600"/>
	<outline>
		<contour>
			<point x="130" y="250" type="line"/>
			<point x="232" y="309" type="line"/>
			<point x="321" y="349" type="line"/>
			<point x="515" y="457" type="line"/>
			<point x="476" y="530" type="line"/>
			<point x="321" y="443" type="line"/>
			<point x="232" y="404" type="line"/>
			<point x="90" y="323" type="line"/>
		</contour>
		<component base="l"/>
	</outline>
	<anchor name="aboveUC" x="280" y="734"/>
	<anchor name="belowLC" x="376" y="-20"/>
</glyph>
<glyph name="Eng" format="2">
	<unicode hex="014A"/>
	<advance width="600"/>
	<outline>
		<contour>
			<point x="369" y="-12" type="curve" smooth="yes"/>
			<point x="495" y="-12"/>
			<point x="552" y="91"/>
			<point x="552" y="333" type="curve" smooth="yes"/>
			<point x="552" y="577"/>
			<point x="463" y="666"/>
			<point x="343" y="666" type="curve" smooth="yes"/>
			<point x="282" y="666"/>
			<point x="229" y="633"/>
			<point x="187" y="584" type="curve"/>
			<point x="187" y="654" type="line"/>
			<point x="75" y="654" type="line"/>
			<point x="75" y="0" type="line"/>
			<point x="191" y="0" type="line"/>
			<point x="191" y="482" type="line"/>
			<point x="223" y="532"/>
			<point x="273" y="565"/>
			<point x="315" y="565" type="curve" smooth="yes"/>
			<point x="387" y="565"/>
			<point x="433" y="506"/>
			<point x="433" y="333" type="curve" smooth="yes"/>
			<point x="433" y="145"/>
			<point x="403" y="97"/>
			<point x="356" y="97" type="curve" smooth="yes"/>
			<point x="340" y="97"/>
			<point x="328" y="100"/>
			<point x="317" y="105" type="curve"/>
			<point x="291" y="4" type="line"/>
			<point x="309" y="-7"/>
			<point x="343" y="-12"/>
		</contour>
	</outline>
	<anchor name="aboveUC" x="320" y="674"/>
	<anchor name="belowLC" x="304" y="-20"/>
</glyph>
<glyph name="tbar" format="2">
	<unicode hex="0167"/>
	<advance width="600"/>
	<outline>
		<contour>
			<point x="60" y="219" type="line"/>
			<point x="509" y="219" type="line"/>
			<point x="509" y="288" type="line"/>
			<point x="198" y="288" type="line"/>
			<point x="60" y="282" type="line"/>
		</contour>
		<component base="t"/>
	</outline>
	<anchor name="aboveLC" x="260" y="651"/>
	<anchor name="belowLC" x="374" y="-20"/>
</glyph>
<glyph name="Ohorn" format="2">
	<unicode hex="01A0"/>
	<advance width="600"/>
	<outline>
		<contour>
			<point x="465" y="596" type="line"/>
			<point x="540" y="616"/>
			<point x="579" y="660"/>
			<point x="579" y="732" type="curve" smooth="yes"/>
			<point x="579" y="767"/>
			<point x="567" y="800"/>
			<point x="553" y="822" type="curve"/>
			<point x="465" y="786" type="line"/>
			<point x="473" y="770"/>
			<point x="480" y="747"/>
			<point x="480" y="724" type="curve" smooth="yes"/>
			<point x="480" y="675"/>
			<point x="457" y="649"/>
			<point x="407" y="638" type="curve"/>
		</contour>
		<component base="O"/>
	</outline>
	<anchor name="aboveUC" x="300" y="674"/>
	<anchor name="belowLC" x="300" y="-20"/>
</glyph>
<glyph name="eopen" format="2">
	<unicode hex="025B"/>
	<advance width="600"/>
	<outline>
		<contour>
			<point x="317" y="-12" type="curve" smooth="yes"/>
			<point x="412" y="-12"/>
			<point x="479" y="6"/>
			<point x="541" y="57" type="curve"/>
			<point x="493" y="131" type="line"/>
			<point x="451" y="95"/>
			<point x="399" y="77"/>
			<point x="338" y="77" type="curve" smooth="yes"/>
			<point x="242" y="77"/>
			<point x="194" y="103"/>
			<point x="194" y="150" type="curve" smooth="yes"/>
			<point x="194" y="194"/>
			<point x="239" y="212"/>
			<point x="326" y="212" type="curve" smooth="yes"/>
			<point x="401" y="212" type="line"/>
			<point x="401" y="294" type="line"/>
			<point x="341" y="294" type="line" smooth="yes"/>
			<point x="260" y="294"/>
			<point x="217" y="313"/>
			<point x="217" y="352" type="curve" smooth="yes"/>
			<point x="217" y="393"/>
			<point x="256" y="414"/>
			<point x="336" y="414" type="curve" smooth="yes"/>
			<point x="394" y="414"/>
			<point x="442" y="399"/>
			<point x="487" y="370" type="curve"/>
			<point x="530" y="443" type="line"/>
			<point x="475" y="480"/>
			<point x="406" y="503"/>
			<point x="330" y="503" type="curve" smooth="yes"/>
			<point x="198" y="503"/>
			<point x="104" y="462"/>
			<point x="104" y="368" type="curve" smooth="yes"/>
			<point x="104" y="324"/>
			<point x="136" y="282"/>
			<point x="195" y="262" type="curve"/>
			<point x="195" y="258" type="line"/>
			<point x="127" y="241"/>
			<point x="80" y="207"/>
			<point x="80" y="139" type="curve" smooth="yes"/>
			<point x="80" y="41"/>
			<point x="180" y="-12"/>
		</contour>
	</outline>
	<anchor name="aboveLC" x="330" y="512"/>
	<anchor name="baseLC" x="314" y="0"/>
	<anchor name="belowLC" x="314" y="-20"/>
</glyph>
<glyph name="dotlessjstroke" format="2">
	<unicode hex="025F"/>
	<advance width="600"/>
	<outline>
		<contour>
			<point x="113" y="196" type="line"/>
			<point x="561" y="196" type="line"/>
			<point x="561" y="268" type="line"/>
			<point x="298" y="268" type="line"/>
			<point x="113" y="262" type="line"/>
		</contour>
		<component base="dotlessj"/>
	</outline>
	<anchor name="aboveLC" x="347" y="512"/>
	<anchor name="belowLC" x="242" y="-212"/>
</glyph>
<glyph name="lezh" format="2">
	<unicode hex="026E"/>
	<advance width="600"/>
	<outline>
		<contour>
			<point x="60" y="0" type="line"/>
			<point x="175" y="0" type="line"/>
			<point x="175" y="706" type="line"/>
			<point x="60" y="706" type="line"/>
		</contour>
		<contour>
			<point x="364" y="-206" type="curve" smooth="yes"/>
			<point x="481" y="-206"/>
			<point x="585" y="-126"/>
			<point x="585" y="18" type="curve" smooth="yes"/>
			<point x="585" y="129"/>
			<point x="510" y="219"/>
			<point x="362" y="206" type="curve"/>
			<point x="374" y="182" type="line"/>
			<point x="563" y="430" type="line"/>
			<point x="563" y="491" type="line"/>
			<point x="171" y="491" type="line"/>
			<point x="171" y="400" type="line"/>
			<point x="423" y="400" type="line"/>
			<point x="249" y="171" type="line"/>
			<point x="290" y="114" type="line"/>
			<point x="312" y="123"/>
			<point x="324" y="127"/>
			<point x="355" y="127" type="curve" smooth="yes"/>
			<point x="425" y="127"/>
			<point x="469" y="85"/>
			<point x="469" y="14" type="curve" smooth="yes"/>
			<point x="469" y="-64"/>
			<point x="418" y="-112"/>
			<point x="351" y="-112" type="curve" smooth="yes"/>
			<point x="289" y="-112"/>
			<point x="246" y="-86"/>
			<point x="212" y="-55" type="curve"/>
			<point x="158" y="-127" type="line"/>
			<point x="203" y="-169"/>
			<point x="266" y="-206"/>
		</contour>
	</outline>
	<anchor name="aboveUC" x="118" y="734"/>
	<anchor name="belowLC" x="362" y="-212"/>
</glyph>
<glyph name="mlonglegturned" format="2">
	<unicode hex="0270"/>
	<advance width="600"/>
	<outline>
		<contour>
			<point x="445" y="-194" type="line"/>
			<point x="554" y="-194" type="line"/>
			<point x="554" y="491" type="line"/>
			<point x="442" y="491" type="line"/>
			<point x="442" y="148" type="line"/>
			<point x="424" y="107"/>
			<point x="407" y="87"/>
			<point x="381" y="87" type="curve" smooth="yes"/>
			<point x="353" y="87"/>
			<point x="342" y="108"/>
			<point x="342" y="151" type="curve" smooth="yes"/>
			<point x="342" y="491" type="line"/>
			<point x="246" y="491" type="line"/>
			<point x="246" y="148" type="line"/>
			<point x="226" y="107"/>
			<point x="211" y="87"/>
			<point x="184" y="87" type="curve" smooth="yes"/>
			<point x="157" y="87"/>
			<point x="145" y="108"/>
			<point x="145" y="151" type="curve" smooth="yes"/>
			<point x="145" y="491" type="line"/>
			<point x="34" y="491" type="line"/>
			<point x="34" y="143" type="line" smooth="yes"/>
			<point x="34" y="45"/>
			<point x="75" y="-12"/>
			<point x="143" y="-12" type="curve" smooth="yes"/>
			<point x="199" y="-12"/>
			<point x="232" y="22"/>
			<point x="255" y="71" type="curve"/>
			<point x="268" y="16"/>
			<point x="298" y="-12"/>
			<point x="344" y="-12" type="curve" smooth="yes"/>
			<point x="399" y="-12"/>
			<point x="426" y="20"/>
			<point x="449" y="65" type="curve"/>
			<point x="453" y="65" type="line"/>
			<point x="445" y="-33" type="line"/>
		</contour>
	</outline>
	<anchor name="aboveLC" x="300" y="512"/>
	<anchor name="belowLC" x="494" y="-223"/>
</glyph>
<glyph name="philatin" format="2">
	<unicode hex="0278"/>
	<advance width="600"/>
	<outline>
		<contour>
			<point x="264" y="-9" type="curve"/>
			<point x="258" y="79" type="line"/>
			<point x="190" y="80"/>
			<point x="141" y="140"/>
			<point x="141" y="246" type="curve" smooth="yes"/>
			<point x="141" y="352"/>
			<point x="190" y="411"/>
			<point x="258" y="412" type="curve"/>
			<point x="264" y="500" type="line"/>
			<point x="143" y="499"/>
			<point x="34" y="410"/>
			<point x="34" y="246" type="curve" smooth="yes"/>
			<point x="34" y="82"/>
			<point x="143" y="-8"/>
		</contour>
		<contour>
			<point x="336" y="-9" type="line"/>
			<point x="457" y="-8"/>
			<point x="566" y="82"/>
			<point x="566" y="246" type="curve" smooth="yes"/>
			<point x="566" y="410"/>
			<point x="457" y="499"/>
			<point x="336" y="500" type="curve"/>
			<point x="342" y="412" type="line"/>
			<point x="410" y="411"/>
			<point x="459" y="352"/>
			<point x="459" y="246" type="curve" smooth="yes"/>
			<point x="459" y="140"/>
			<point x="410" y="80"/>
			<point x="342" y="79" type="curve"/>
		</contour>
		<contour>
			<point x="249" y="-195" type="line"/>
			<point x="351" y="-194" type="line"/>
			<point x="351" y="706" type="line"/>
			<point x="249" y="706" type="line"/>
		</contour>
	</outline>
	<anchor name="aboveUC" x="300" y="734"/>
	<anchor name="belowLC" x="300" y="-212"/>
</glyph>
<glyph name="dotlessjstrokehook" format="2">
	<unicode hex="0284"/>
	<advance width="600"/>
	<outline>
		<contour>
			<point x="83" y="221" type="line"/>
			<point x="520" y="221" type="line"/>
			<point x="520" y="291" type="line"/>
			<point x="247" y="291" type="line"/>
			<point x="83" y="285" type="line"/>
		</contour>
		<component base="esh"/>
	</outline>
	<anchor name="aboveUC" x="376" y="734"/>
	<anchor name="belowLC" x="241" y="-212"/>
</glyph>
<glyph name="tretroflex" format="2">
	<unicode hex="0288"/>
	<advance width="600"/>
	<outline>
		<contour>
			<point x="390" y="-185" type="curve" smooth="yes"/>
			<point x="449" y="-185"/>
			<point x="504" y="-172"/>
			<point x="548" y="-157" type="curve"/>
			<point x="526" y="-73" type="line"/>
			<point x="494" y="-85"/>
			<point x="460" y="-93"/>
			<point x="418" y="-93" type="curve" smooth="yes"/>
			<point x="335" y="-93"/>
			<point x="305" y="-56"/>
			<point x="305" y="25" type="curve" smooth="yes"/>
			<point x="305" y="400" type="line"/>
			<point x="529" y="400" type="line"/>
			<point x="529" y="491" type="line"/>
			<point x="305" y="491" type="line"/>
			<point x="305" y="645" type="line"/>
			<point x="210" y="645" type="line"/>
			<point x="195" y="491" type="line"/>
			<point x="59" y="486" type="line"/>
			<point x="59" y="400" type="line"/>
			<point x="190" y="400" type="line"/>
			<point x="190" y="25" type="line" smooth="yes"/>
			<point x="190" y="-100"/>
			<point x="241" y="-185"/>
		</contour>
	</outline>
	<anchor name="aboveLC" x="255" y="650"/>
	<anchor name="belowLC" x="374" y="-212"/>
</glyph>
<glyph name="ubar" format="2">
	<unicode hex="0289"/>
	<advance width="600"/>
	<outline>
		<contour>
			<point x="235" y="-12" type="curve" smooth="yes"/>
			<point x="302" y="-12"/>
			<point x="350" y="21"/>
			<point x="394" y="72" type="curve"/>
			<point x="397" y="72" type="line"/>
			<point x="405" y="0" type="line"/>
			<point x="499" y="0" type="line"/>
			<point x="499" y="491" type="line"/>
			<point x="384" y="491" type="line"/>
			<point x="384" y="155" type="line"/>
			<point x="347" y="107"/>
			<point x="319" y="87"/>
			<point x="276" y="87" type="curve" smooth="yes"/>
			<point x="223" y="87"/>
			<point x="199" y="117"/>
			<point x="199" y="198" type="curve" smooth="yes"/>
			<point x="199" y="491" type="line"/>
			<point x="84" y="491" type="line"/>
			<point x="84" y="183" type="line" smooth="yes"/>
			<point x="84" y="59"/>
			<point x="130" y="-12"/>
		</contour>
		<contour>
			<point x="-5" y="260" type="line"/>
			<point x="593" y="260" type="line"/>
			<point x="593" y="330" type="line"/>
			<point x="84" y="330" type="line"/>
			<point x="-5" y="324" type="line"/>
		</contour>
	</outline>
	<anchor name="aboveLC" x="295" y="512"/>
	<anchor name="baseLC" x="447" y="0"/>
	<anchor name="belowLC" x="307" y="-20"/>
</glyph>
<glyph name="zcurl" format="2">
	<unicode hex="0291"/>
	<advance width="600"/>
	<outline>
		<contour>
			<point x="359" y="-115" type="line"/>
			<point x="391" y="93"/>
			<point x="441" y="166"/>
			<point x="483" y="166" type="curve" smooth="yes"/>
			<point x="502" y="166"/>
			<point x="514" y="155"/>
			<point x="514" y="136" type="curve" smooth="yes"/>
			<point x="514" y="110"/>
			<point x="492" y="86"/>
			<point x="448" y="86" type="curve" smooth="yes"/>
			<point x="371" y="86"/>
			<point x="303" y="89"/>
			<point x="218" y="92" type="curve"/>
			<point x="497" y="430" type="line"/>
			<point x="497" y="491" type="line"/>
			<point x="104" y="491" type="line"/>
			<point x="104" y="400" type="line"/>
			<point x="351" y="400" type="line"/>
			<point x="71" y="62" type="line"/>
			<point x="71" y="0" type="line"/>
			<point x="419" y="0" type="line" smooth="yes"/>
			<point x="532" y="0"/>
			<point x="586" y="60"/>
			<point x="586" y="136" type="curve" smooth="yes"/>
			<point x="586" y="199"/>
			<point x="545" y="236"/>
			<point x="487" y="236" type="curve" smooth="yes"/>
			<point x="394" y="236"/>
			<point x="328" y="112"/>
			<point x="290" y="-102" type="curve"/>
		</contour>
	</outline>
	<anchor name="aboveLC" x="307" y="512"/>
</glyph>
<glyph name="glottalstop" format="2">
	<unicode hex="0294"/>
	<advance width="600"/>
	<outline>
		<contour>
			<point x="222" y="0" type="line"/>
			<point x="337" y="0" type="line"/>
			<point x="337" y="266" type="line"/>
			<point x="445" y="340"/>
			<point x="519" y="400"/>
			<point x="519" y="513" type="curve" smooth="yes"/>
			<point x="519" y="649"/>
			<point x="410" y="718"/>
			<point x="279" y="718" type="curve" smooth="yes"/>
			<point x="177" y="718"/>
			<point x="106" y="673"/>
			<point x="60" y="622" type="curve"/>
			<point x="119" y="549" type="line"/>
			<point x="153" y="589"/>
			<point x="202" y="624"/>
			<point x="268" y="624" type="curve" smooth="yes"/>
			<point x="352" y="624"/>
			<point x="403" y="581"/>
			<point x="403" y="509" type="curve" smooth="yes"/>
			<point x="403" y="433"/>
			<point x="353" y="389"/>
			<point x="222" y="312" type="curve"/>
		</contour>
	</outline>
	<anchor name="aboveUC" x="300" y="734"/>
	<anchor name="belowLC" x="279" y="-20"/>
</glyph>
<glyph name="lsmall" format="2">
	<unicode hex="029F"/>
	<advance width="600"/>
	<outline>
		<contour>
			<point x="134" y="0" type="line"/>
			<point x="534" y="0" type="line"/>
			<point x="534" y="92" type="line"/>
			<point x="249" y="92" type="line"/>
			<point x="249" y="491" type="line"/>
			<point x="134" y="491" type="line"/>
		</contour>
	</outline>
	<anchor name="aboveLC" x="192" y="512"/>
	<anchor name="belowLC" x="338" y="-20"/>
</glyph>
<glyph name="dezh" format="2">
	<unicode hex="02A4"/>
	<advance width="600"/>
	<outline>
		<contour>
			<point x="151" y="-12" type="curve" smooth="yes"/>
			<point x="192" y="-12"/>
			<point x="224" y="15"/>
			<point x="247" y="51" type="curve"/>
			<point x="250" y="51" type="line"/>
			<point x="260" y="0" type="line"/>
			<point x="334" y="0" type="line"/>
			<point x="334" y="706" type="line"/>
			<point x="238" y="706" type="line"/>
			<point x="238" y="544" type="line"/>
			<point x="244" y="452" type="line"/>
			<point x="242" y="452" type="line"/>
			<point x="221" y="484"/>
			<point x="191" y="503"/>
			<point x="155" y="503" type="curve" smooth="yes"/>
			<point x="69" y="503"/>
			<point x="-4" y="402"/>
			<point x="-4" y="245" type="curve" smooth="yes"/>
			<point x="-4" y="86"/>
			<point x="61" y="-12"/>
		</contour>
		<contour>
			<point x="177" y="83" type="curve" smooth="yes"/>
			<point x="129" y="83"/>
			<point x="102" y="142"/>
			<point x="102" y="246" type="curve" smooth="yes"/>
			<point x="102" y="347"/>
			<point x="134" y="408"/>
			<point x="179" y="408" type="curve" smooth="yes"/>
			<point x="204" y="408"/>
			<point x="222" y="392"/>
			<point x="238" y="363" type="curve"/>
			<point x="238" y="146" type="line"/>
			<point x="225" y="108"/>
			<point x="204" y="83"/>
		</contour>
		<contour>
			<point x="444" y="-206" type="curve" smooth="yes"/>
			<point x="548" y="-206"/>
			<point x="618" y="-119"/>
			<point x="618" y="14" type="curve" smooth="yes"/>
			<point x="618" y="125"/>
			<point x="562" y="210"/>
			<point x="467" y="211" type="curve" smooth="yes"/>
			<point x="451" y="211"/>
			<point x="435" y="204"/>
			<point x="422" y="198" type="curve"/>
			<point x="453" y="174" type="line"/>
			<point x="597" y="430" type="line"/>
			<point x="597" y="491" type="line"/>
			<point x="304" y="491" type="line"/>
			<point x="304" y="400" type="line"/>
			<point x="486" y="400" type="line"/>
			<point x="358" y="182" type="line"/>
			<point x="397" y="115" type="line"/>
			<point x="412" y="123"/>
			<point x="421" y="127"/>
			<point x="437" y="127" type="curve" smooth="yes"/>
			<point x="483" y="127"/>
			<point x="513" y="88"/>
			<point x="513" y="15" type="curve" smooth="yes"/>
			<point x="513" y="-73"/>
			<point x="479" y="-113"/>
			<point x="433" y="-113" type="curve" smooth="yes"/>
			<point x="399" y="-113"/>
			<point x="375" y="-99"/>
			<point x="351" y="-77" type="curve"/>
			<point x="303" y="-150" type="line"/>
			<point x="338" y="-184"/>
			<point x="380" y="-206"/>
		</contour>
	</outline>
	<anchor name="aboveUC" x="280" y="730"/>
	<anchor name="belowLC" x="330" y="-212"/>
</glyph>
<glyph name="ts" format="2">
	<unicode hex="02A6"/>
	<advance width="600"/>
	<outline>
		<contour>
			<point x="329" y="-12" type="curve" smooth="yes"/>
			<point x="515" y="-12"/>
			<point x="580" y="46"/>
			<point x="580" y="140" type="curve" smooth="yes"/>
			<point x="580" y="300"/>
			<point x="401" y="303"/>
			<point x="401" y="375" type="curve" smooth="yes"/>
			<point x="401" y="404"/>
			<point x="420" y="421"/>
			<point x="452" y="421" type="curve" smooth="yes"/>
			<point x="482" y="421"/>
			<point x="506" y="412"/>
			<point x="536" y="390" type="curve"/>
			<point x="576" y="454" type="line"/>
			<point x="539" y="486"/>
			<point x="492" y="503"/>
			<point x="441" y="503" type="curve" smooth="yes"/>
			<point x="353" y="503"/>
			<point x="293" y="457"/>
			<point x="293" y="379" type="curve" smooth="yes"/>
			<point x="293" y="243"/>
			<point x="478" y="244"/>
			<point x="478" y="143" type="curve" smooth="yes"/>
			<point x="478" y="101"/>
			<point x="444" y="75"/>
			<point x="339" y="75" type="curve" smooth="yes"/>
			<point x="242" y="75"/>
			<point x="201" y="105"/>
			<point x="201" y="182" type="curve" smooth="yes"/>
			<point x="201" y="400" type="line"/>
			<point x="400" y="400" type="line"/>
			<point x="400" y="491" type="line"/>
			<point x="201" y="491" type="line"/>
			<point x="201" y="645" type="line"/>
			<point x="106" y="645" type="line"/>
			<point x="91" y="491" type="line"/>
			<point x="16" y="486" type="line"/>
			<point x="16" y="400" type="line"/>
			<point x="86" y="400" type="line"/>
			<point x="86" y="182" type="line" smooth="yes"/>
			<point x="86" y="60"/>
			<point x="152" y="-12"/>
		</contour>
	</outline>
	<anchor name="aboveLC" x="330" y="650"/>
	<anchor name="belowLC" x="336" y="-20"/>
</glyph>
<glyph name="gravecmb" format="2">
	<unicode hex="0300"/>
	<advance width="600"/>
	<outline>
		<contour>
			<point x="314" y="564" type="line"/>
			<point x="371" y="621" type="line"/>
			<point x="224" y="796" type="line"/>
			<point x="144" y="719" type="line"/>
		</contour>
	</outline>
	<anchor name="_aboveLC" x="300" y="512"/>
	<anchor name="aboveLC" x="300" y="692"/>
</glyph>
<glyph name="macroncmb" format="2">
	<unicode hex="0304"/>
	<advance width="600"/>
	<outline>
		<contour>
			<point x="160" y="596" type="line"/>
			<point x="440" y="596" type="line"/>
			<point x="440" y="672" type="line"/>
			<point x="160" y="672" type="line"/>
		</contour>
	</outline>
	<anchor name="_aboveLC" x="300" y="512"/>
	<anchor name="aboveLC" x="300" y="620"/>
</glyph>
<glyph name="ringcmb" format="2">
	<unicode hex="030A"/>
	<advance width="600"/>
	<outline>
		<contour>
			<point x="300" y="569" type="curve" smooth="yes"/>
			<point x="378" y="569"/>
			<point x="421" y="613"/>
			<point x="421" y="668" type="curve" smooth="yes"/>
			<point x="421" y="724"/>
			<point x="378" y="768"/>
			<point x="300" y="768" type="curve" smooth="yes"/>
			<point x="222" y="768"/>
			<point x="179" y="724"/>
			<point x="179" y="668" type="curve" smooth="yes"/>
			<point x="179" y="613"/>
			<point x="222" y="569"/>
		</contour>
		<contour>
			<point x="300" y="615" type="curve" smooth="yes"/>
			<point x="272" y="615"/>
			<point x="250" y="638"/>
			<point x="250" y="668" type="curve" smooth="yes"/>
			<point x="250" y="699"/>
			<point x="272" y="722"/>
			<point x="300" y="722" type="curve" smooth="yes"/>
			<point x="328" y="722"/>
			<point x="350" y="699"/>
			<point x="350" y="668" type="curve" smooth="yes"/>
			<point x="350" y="638"/>
			<point x="328" y="615"/>
		</contour>
	</outline>
	<anchor name="_aboveLC" x="300" y="512"/>
	<anchor name="aboveLC" x="300" y="656"/>
</glyph>
<glyph name="dblgravecmb" format="2">
	<unicode hex="030F"/>
	<advance width="600"/>
	<outline>
		<contour>
			<point x="190" y="566" type="line"/>
			<point x="252" y="594" type="line"/>
			<point x="165" y="771" type="line"/>
			<point x="86" y="735" type="line"/>
		</contour>
		<contour>
			<point x="355" y="566" type="line"/>
			<point x="417" y="594" type="line"/>
			<point x="330" y="771" type="line"/>
			<point x="251" y="735" type="line"/>
		</contour>
	</outline>
	<anchor name="_aboveLC" x="300" y="512"/>
</glyph>
<glyph name="commaturnedabovecmb" format="2">
	<unicode hex="0312"/>
	<advance width="600"/>
	<outline>
		<contour>
			<point x="306" y="558" type="curve" smooth="yes"/>
			<point x="338" y="558"/>
			<point x="363" y="578"/>
			<point x="363" y="614" type="curve" smooth="yes"/>
			<point x="363" y="649"/>
			<point x="336" y="668"/>
			<point x="309" y="668" type="curve" smooth="yes"/>
			<point x="295" y="668"/>
			<point x="283" y="659"/>
			<point x="272" y="648" type="curve"/>
			<point x="308" y="601" type="line"/>
			<point x="292" y="657" type="line"/>
			<point x="293" y="688"/>
			<point x="315" y="710"/>
			<point x="360" y="727" type="curve"/>
			<point x="340" y="768" type="line"/>
			<point x="269" y="745"/>
			<point x="236" y="698"/>
			<point x="236" y="642" type="curve" smooth="yes"/>
			<point x="236" y="589"/>
			<point x="264" y="558"/>
		</contour>
	</outline>
	<anchor name="_aboveLC" x="300" y="512"/>
</glyph>
<glyph name="righttackbelowcmb" format="2">
	<unicode hex="0319"/>
	<advance width="600"/>
	<outline>
		<contour>
			<point x="197" y="-253" type="line"/>
			<point x="266" y="-253" type="line"/>
			<point x="266" y="-184" type="line"/>
			<point x="382" y="-184" type="line"/>
			<point x="382" y="-125" type="line"/>
			<point x="266" y="-125" type="line"/>
			<point x="266" y="-56" type="line"/>
			<point x="197" y="-56" type="line"/>
		</contour>
	</outline>
	<anchor name="_belowLC" x="300" y="-20"/>
</glyph>
<glyph name="minusbelowcmb" format="2">
	<unicode hex="0320"/>
	<advance width="600"/>
	<outline>
		<contour>
			<point x="178" y="-152" type="line"/>
			<point x="422" y="-152" type="line"/>
			<point x="422" y="-93" type="line"/>
			<point x="178" y="-93" type="line"/>
		</contour>
	</outline>
	<anchor name="_belowLC" x="300" y="-20"/>
</glyph>
<glyph name="verticallinebelowcmb" format="2">
	<unicode hex="0329"/>
	<advance width="600"/>
	<outline>
		<contour>
			<point x="253" y="-268" type="line"/>
			<point x="347" y="-268" type="line"/>
			<point x="341" y="-68" type="line"/>
			<point x="259" y="-68" type="line"/>
		</contour>
	</outline>
	<anchor name="_belowLC" x="300" y="-20"/>
</glyph>
<glyph name="bridgeinvertedbelowcmb" format="2">
	<unicode hex="033A"/>
	<advance width="600"/>
	<outline>
		<contour>
			<point x="173" y="-220" type="line"/>
			<point x="427" y="-220" type="line"/>
			<point x="427" y="-77" type="line"/>
			<point x="365" y="-77" type="line"/>
			<point x="365" y="-160" type="line"/>
			<point x="235" y="-160" type="line"/>
			<point x="235" y="-77" type="line"/>
			<point x="173" y="-77" type="line"/>
		</contour>
	</outline>
	<anchor name="_belowLC" x="300" y="-20"/>
</glyph>
<glyph name="iotasubscriptcmb" format="2">
	<unicode hex="0345"/>
	<advance width="600"/>
	<outline>
		<contour>
			<point x="349" y="-208" type="curve" smooth="yes"/>
			<point x="374" y="-208"/>
			<point x="389" y="-205"/>
			<point x="403" y="-199" type="curve"/>
			<point x="391" y="-134" type="line"/>
			<point x="380" y="-137"/>
			<point x="377" y="-137"/>
			<point x="372" y="-137" type="curve" smooth="yes"/>
			<point x="353" y="-137"/>
			<point x="338" y="-129"/>
			<point x="338" y="-105" type="curve" smooth="yes"/>
			<point x="338" y="-93"/>
			<point x="338" y="-74"/>
			<point x="340" y="-58" type="curve"/>
			<point x="255" y="-58" type="line"/>
			<point x="255" y="-99" type="line" smooth="yes"/>
			<point x="255" y="-168"/>
			<point x="281" y="-208"/>
		</contour>
	</outline>
	<anchor name="_belowLC" x="300" y="-20"/>
</glyph>
<glyph name="breveinverteddoublecmb" format="2">
	<unicode hex="0361"/>
	<advance width="600"/>
	<outline>
		<contour>
			<point x="-124" y="593" type="line"/>
			<point x="4" y="668"/>
			<point x="165" y="697"/>
			<point x="300" y="697" type="curve" smooth="yes"/>
			<point x="435" y="697"/>
			<point x="596" y="668"/>
			<point x="724" y="593" type="curve"/>
			<point x="756" y="648" type="line"/>
			<point x="620" y="731"/>
			<point x="464" y="773"/>
			<point x="300" y="773" type="curve" smooth="yes"/>
			<point x="136" y="773"/>
			<point x="-20" y="731"/>
			<point x="-156" y="648" type="curve"/>
		</contour>
	</outline>
</glyph>
<glyph name="numeralsign" format="2">
	<unicode hex="0374"/>
	<advance width="600"/>
	<outline>
		<contour>
			<point x="244" y="418" type="line"/>
			<point x="320" y="418" type="line"/>
			<point x="360" y="578" type="line"/>
			<point x="379" y="688" type="line"/>
			<point x="265" y="688" type="line"/>
		</contour>
	</outline>
</glyph>
<glyph name="epsilon" format="2">
	<unicode hex="03B5"/>
	<advance width="600"/>
	<outline>
		<contour>
			<point x="325" y="-12" type="curve" smooth="yes"/>
			<point x="403" y="-12"/>
			<point x="467" y="2"/>
			<point x="540" y="55" type="curve"/>
			<point x="493" y="130" type="line"/>
			<point x="440" y="88"/>
			<point x="387" y="77"/>
			<point x="337" y="77" type="curve" smooth="yes"/>
			<point x="238" y="77"/>
			<point x="194" y="104"/>
			<point x="194" y="149" type="curve" smooth="yes"/>
			<point x="194" y="193"/>
			<point x="235" y="213"/>
			<point x="321" y="213" type="curve" smooth="yes"/>
			<point x="347" y="213"/>
			<point x="374" y="212"/>
			<point x="402" y="210" type="curve"/>
			<point x="402" y="297" type="line"/>
			<point x="378" y="295"/>
			<point x="357" y="294"/>
			<point x="337" y="294" type="curve" smooth="yes"/>
			<point x="255" y="294"/>
			<point x="216" y="315"/>
			<point x="216" y="351" type="curve" smooth="yes"/>
			<point x="216" y="391"/>
			<point x="256" y="414"/>
			<point x="334" y="414" type="curve" smooth="yes"/>
			<point x="387" y="414"/>
			<point x="437" y="399"/>
			<point x="483" y="367" type="curve"/>
			<point x="527" y="443" type="line"/>
			<point x="470" y="482"/>
			<point x="400" y="503"/>
			<point x="329" y="503" type="curve" smooth="yes"/>
			<point x="197" y="503"/>
			<point x="103" y="461"/>
			<point x="103" y="367" type="curve" smooth="yes"/>
			<point x="103" y="324"/>
			<point x="133" y="281"/>
			<point x="193" y="261" type="curve"/>
			<point x="193" y="257" type="line"/>
			<point x="127" y="239"/>
			<point x="80" y="206"/>
			<point x="80" y="138" type="curve" smooth="yes"/>
			<point x="80" y="41"/>
			<point x="177" y="-12"/>
		</contour>
	</outline>
	<anchor name="aboveLC" x="334" y="512"/>
</glyph>
<glyph name="zeta" format="2">
	<unicode hex="03B6"/>
	<advance width="600"/>
	<outline>
		<contour>
			<point x="470" y="-186" type="line"/>
			<point x="512" y="-126"/>
			<point x="529" y="-68"/>
			<point x="529" y="-36" type="curve" smooth="yes"/>
			<point x="529" y="35"/>
			<point x="481" y="61"/>
			<point x="371" y="83" type="curve" smooth="yes"/>
			<point x="267" y="103"/>
			<point x="219" y="134"/>
			<point x="219" y="231" type="curve" smooth="yes"/>
			<point x="219" y="357"/>
			<point x="356" y="528"/>
			<point x="520" y="615" type="curve"/>
			<point x="525" y="615" type="line"/>
			<point x="525" y="706" type="line"/>
			<point x="132" y="706" type="line"/>
			<point x="132" y="615" type="line"/>
			<point x="205" y="620"/>
			<point x="337" y="620"/>
			<point x="395" y="622" type="curve"/>
			<point x="232" y="518"/>
			<point x="100" y="368"/>
			<point x="100" y="225" type="curve" smooth="yes"/>
			<point x="100" y="63"/>
			<point x="199" y="14"/>
			<point x="304" y="-8" type="curve" smooth="yes"/>
			<point x="401" y="-28"/>
			<point x="427" y="-37"/>
			<point x="427" y="-66" type="curve" smooth="yes"/>
			<point x="427" y="-92"/>
			<point x="411" y="-112"/>
			<point x="380" y="-153" type="curve"/>
		</contour>
	</outline>
</glyph>
<glyph name="omicron" format="2">
	<unicode hex="03BF"/>
	<advance width="600"/>
	<outline>
		<contour>
			<point x="300" y="-12" type="curve" smooth="yes"/>
			<point x="429" y="-12"/>
			<point x="543" y="82"/>
			<point x="543" y="245" type="curve" smooth="yes"/>
			<point x="543" y="409"/>
			<point x="429" y="503"/>
			<point x="300" y="503" type="curve" smooth="yes"/>
			<point x="171" y="503"/>
			<point x="57" y="409"/>
			<point x="57" y="245" type="curve" smooth="yes"/>
			<point x="57" y="82"/>
			<point x="171" y="-12"/>
		</contour>
		<contour>
			<point x="300" y="82" type="curve" smooth="yes"/>
			<point x="221" y="82"/>
			<point x="176" y="147"/>
			<point x="176" y="245" type="curve" smooth="yes"/>
			<point x="176" y="344"/>
			<point x="221" y="409"/>
			<point x="300" y="409" type="curve" smooth="yes"/>
			<point x="379" y="409"/>
			<point x="424" y="344"/>
			<point x="424" y="245" type="curve" smooth="yes"/>
			<point x="424" y="147"/>
			<point x="379" y="82"/>
		</contour>
	</outline>
	<anchor name="aboveLC" x="300" y="512"/>
</glyph>
<glyph name="sigma" format="2">
	<unicode hex="03C3"/>
	<advance width="600"/>
	<outline>
		<contour>
			<point x="287" y="-12" type="curve" smooth="yes"/>
			<point x="417" y="-12"/>
			<point x="513" y="76"/>
			<point x="513" y="223" type="curve" smooth="yes"/>
			<point x="513" y="306"/>
			<point x="481" y="369"/>
			<point x="424" y="401" type="curve"/>
			<point x="424" y="405" type="line"/>
			<point x="478" y="404"/>
			<point x="518" y="400"/>
			<point x="574" y="395" type="curve"/>
			<point x="574" y="491" type="line"/>
			<point x="292" y="491" type="line" smooth="yes"/>
			<point x="169" y="491"/>
			<point x="53" y="411"/>
			<point x="53" y="240" type="curve" smooth="yes"/>
			<point x="53" y="77"/>
			<point x="159" y="-12"/>
		</contour>
		<contour>
			<point x="288" y="82" type="curve" smooth="yes"/>
			<point x="219" y="82"/>
			<point x="172" y="142"/>
			<point x="172" y="240" type="curve" smooth="yes"/>
			<point x="172" y="348"/>
			<point x="220" y="397"/>
			<point x="289" y="397" type="curve" smooth="yes"/>
			<point x="362" y="397"/>
			<point x="403" y="321"/>
			<point x="403" y="234" type="curve" smooth="yes"/>
			<point x="403" y="139"/>
			<point x="357" y="82"/>
		</contour>
	</outline>
</glyph>
<glyph name="phi" format="2">
	<unicode hex="03C6"/>
	<advance width="600"/>
	<outline>
		<contour>
			<point x="264" y="-9" type="curve"/>
			<point x="258" y="79" type="line"/>
			<point x="190" y="80"/>
			<point x="141" y="140"/>
			<point x="141" y="246" type="curve" smooth="yes"/>
			<point x="141" y="352"/>
			<point x="190" y="411"/>
			<point x="258" y="412" type="curve"/>
			<point x="264" y="500" type="line"/>
			<point x="144" y="499"/>
			<point x="34" y="410"/>
			<point x="34" y="246" type="curve" smooth="yes"/>
			<point x="34" y="82"/>
			<point x="144" y="-8"/>
		</contour>
		<contour>
			<point x="336" y="-9" type="line"/>
			<point x="456" y="-8"/>
			<point x="566" y="82"/>
			<point x="566" y="246" type="curve" smooth="yes"/>
			<point x="566" y="410"/>
			<point x="456" y="499"/>
			<point x="336" y="500" type="curve"/>
			<point x="342" y="412" type="line"/>
			<point x="410" y="411"/>
			<point x="459" y="352"/>
			<point x="459" y="246" type="curve" smooth="yes"/>
			<point x="459" y="140"/>
			<point x="410" y="80"/>
			<point x="342" y="79" type="curve"/>
		</contour>
		<contour>
			<point x="249" y="-178" type="line"/>
			<point x="351" y="-178" type="line"/>
			<point x="351" y="625" type="line"/>
			<point x="249" y="625" type="line"/>
		</contour>
	</outline>
</glyph>
<glyph name="koppa" format="2">
	<unicode hex="03D9"/>
	<advance width="600"/>
	<outline>
		<contour>
			<point x="300" y="-12" type="curve" smooth="yes"/>
			<point x="431" y="-12"/>
			<point x="545" y="82"/>
			<point x="545" y="245" type="curve" smooth="yes"/>
			<point x="545" y="410"/>
			<point x="431" y="503"/>
			<point x="300" y="503" type="curve" smooth="yes"/>
			<point x="169" y="503"/>
			<point x="55" y="410"/>
			<point x="55" y="245" type="curve" smooth="yes"/>
			<point x="55" y="82"/>
			<point x="169" y="-12"/>
		</contour>
		<contour>
			<point x="300" y="77" type="curve" smooth="yes"/>
			<point x="217" y="77"/>
			<point x="173" y="142"/>
			<point x="173" y="245" type="curve" smooth="yes"/>
			<point x="173" y="344"/>
			<point x="217" y="409"/>
			<point x="300" y="409" type="curve" smooth="yes"/>
			<point x="383" y="409"/>
			<point x="427" y="344"/>
			<point x="427" y="245" type="curve" smooth="yes"/>
			<point x="427" y="142"/>
			<point x="383" y="77"/>
		</contour>
		<contour>
			<point x="247" y="-178" type="line"/>
			<point x="364" y="-178" type="line"/>
			<point x="361" y="-101"/>
			<point x="359" y="-47"/>
			<point x="356" y="32" type="curve"/>
			<point x="247" y="35" type="line"/>
		</contour>
	</outline>
</glyph>
<glyph name="Lje" format="2">
	<unicode hex="0409"/>
	<advance width="600"/>
	<outline>
		<contour>
			<point x="39" y="-12" type="curve" smooth="yes"/>
			<point x="117" y="-12"/>
			<point x="155" y="38"/>
			<point x="173" y="220" type="curve" smooth="yes"/>
			<point x="187" y="358"/>
			<point x="194" y="451"/>
			<point x="198" y="557" type="curve"/>
			<point x="335" y="557" type="line"/>
			<point x="349" y="654" type="line"/>
			<point x="106" y="654" type="line"/>
			<point x="103" y="523"/>
			<point x="96" y="385"/>
			<point x="78" y="243" type="curve" smooth="yes"/>
			<point x="61" y="111"/>
			<point x="48" y="97"/>
			<point x="28" y="97" type="curve" smooth="yes"/>
			<point x="21" y="97"/>
			<point x="17" y="99"/>
			<point x="10" y="101" type="curve"/>
			<point x="-12" y="-5" type="line"/>
			<point x="7" y="-11"/>
			<point x="22" y="-12"/>
		</contour>
		<contour>
			<point x="268" y="0" type="line"/>
			<point x="378" y="0" type="line" smooth="yes"/>
			<point x="495" y="0"/>
			<point x="578" y="59"/>
			<point x="578" y="208" type="curve" smooth="yes"/>
			<point x="578" y="345"/>
			<point x="498" y="401"/>
			<point x="385" y="401" type="curve" smooth="yes"/>
			<point x="368" y="401" type="line"/>
			<point x="368" y="654" type="line"/>
			<point x="268" y="654" type="line"/>
		</contour>
		<contour>
			<point x="368" y="93" type="line"/>
			<point x="368" y="308" type="line"/>
			<point x="379" y="308" type="line" smooth="yes"/>
			<point x="449" y="308"/>
			<point x="482" y="276"/>
			<point x="482" y="206" type="curve" smooth="yes"/>
			<point x="482" y="126"/>
			<point x="447" y="93"/>
			<point x="381" y="93" type="curve" smooth="yes"/>
		</contour>
	</outline>
</glyph>
<glyph name="Dzhe" format="2">
	<unicode hex="040F"/>
	<advance width="600"/>
	<outline>
		<contour>
			<point x="69" y="0" type="line"/>
			<point x="531" y="0" type="line"/>
			<point x="531" y="654" type="line"/>
			<point x="415" y="654" type="line"/>
			<point x="415" y="98" type="line"/>
			<point x="185" y="98" type="line"/>
			<point x="185" y="654" type="line"/>
			<point x="69" y="654" type="line"/>
		</contour>
		<contour>
			<point x="253" y="-188" type="line"/>
			<point x="348" y="-188" type="line"/>
			<point x="359" y="19" type="line"/>
			<point x="253" y="0" type="line"/>
		</contour>
	</outline>
</glyph>
<glyph name="Zhe" format="2">
	<unicode hex="0416"/>
	<advance width="600"/>
	<outline>
		<contour>
			<point x="1" y="0" type="line"/>
			<point x="115" y="0" type="line"/>
			<point x="203" y="291" type="line"/>
			<point x="251" y="291" type="line"/>
			<point x="251" y="0" type="line"/>
			<point x="349" y="0" type="line"/>
			<point x="349" y="291" type="line"/>
			<point x="397" y="291" type="line"/>
			<point x="485" y="0" type="line"/>
			<point x="599" y="0" type="line"/>
			<point x="459" y="389" type="line"/>
			<point x="349" y="389" type="line"/>
			<point x="349" y="654" type="line"/>
			<point x="251" y="654" type="line"/>
			<point x="251" y="389" type="line"/>
			<point x="141" y="389" type="line"/>
		</contour>
		<contour>
			<point x="131" y="332" type="line"/>
			<point x="223" y="348" type="line"/>
			<point x="170" y="549" type="line" smooth="yes"/>
			<point x="144" y="645"/>
			<point x="100" y="666"/>
			<point x="45" y="666" type="curve" smooth="yes"/>
			<point x="31" y="666"/>
			<point x="12" y="663"/>
			<point x="1" y="660" type="curve"/>
			<point x="19" y="551" type="line"/>
			<point x="26" y="553"/>
			<point x="33" y="555"/>
			<point x="41" y="555" type="curve" smooth="yes"/>
			<point x="60" y="555"/>
			<point x="78" y="545"/>
			<point x="93" y="492" type="curve" smooth="yes"/>
		</contour>
		<contour>
			<point x="469" y="332" type="line"/>
			<point x="507" y="492" type="line" smooth="yes"/>
			<point x="522" y="545"/>
			<point x="540" y="555"/>
			<point x="559" y="555" type="curve" smooth="yes"/>
			<point x="567" y="555"/>
			<point x="574" y="553"/>
			<point x="581" y="551" type="curve"/>
			<point x="599" y="660" type="line"/>
			<point x="588" y="663"/>
			<point x="567" y="666"/>
			<point x="552" y="666" type="curve" smooth="yes"/>
			<point x="497" y="666"/>
			<point x="456" y="645"/>
			<point x="430" y="549" type="curve" smooth="yes"/>
			<point x="377" y="348" type="line"/>
		</contour>
	</outline>
	<anchor name="aboveUC" x="300" y="674"/>
</glyph>
<glyph name="Icyr" format="2">
	<unicode hex="0418"/>
	<advance width="600"/>
	<outline>
		<contour>
			<point x="71" y="0" type="line"/>
			<point x="193" y="0" type="line"/>
			<point x="376" y="368" type="line"/>
			<point x="434" y="507" type="line"/>
			<point x="437" y="507" type="line"/>
			<point x="432" y="437"/>
			<point x="422" y="359"/>
			<point x="422" y="286" type="curve" smooth="yes"/>
			<point x="422" y="0" type="line"/>
			<point x="529" y="0" type="line"/>
			<point x="529" y="654" type="line"/>
			<point x="407" y="654" type="line"/>
			<point x="224" y="287" type="line"/>
			<point x="166" y="147" type="line"/>
			<point x="163" y="147" type="line"/>
			<point x="168" y="214"/>
			<point x="178" y="297"/>
			<point x="178" y="370" type="curve" smooth="yes"/>
			<point x="178" y="654" type="line"/>
			<point x="71" y="654" type="line"/>
		</contour>
	</outline>
	<anchor name="aboveUC" x="304" y="674"/>
</glyph>
<glyph name="ghe" format="2">
	<unicode hex="0433"/>
	<advance width="600"/>
	<outline>
		<contour>
			<point x="130" y="0" type="line"/>
			<point x="246" y="0" type="line"/>
			<point x="246" y="400" type="line"/>
			<point x="525" y="400" type="line"/>
			<point x="525" y="491" type="line"/>
			<point x="130" y="491" type="line"/>
		</contour>
	</outline>
	<anchor name="aboveLC" x="342" y="512"/>
</glyph>
<glyph name="ze" format="2">
	<unicode hex="0437"/>
	<advance width="600"/>
	<outline>
		<contour>
			<point x="279" y="-12" type="curve" smooth="yes"/>
			<point x="424" y="-12"/>
			<point x="527" y="41"/>
			<point x="527" y="138" type="curve" smooth="yes"/>
			<point x="527" y="206"/>
			<point x="487" y="240"/>
			<point x="417" y="257" type="curve"/>
			<point x="417" y="261" type="line"/>
			<point x="480" y="281"/>
			<point x="505" y="322"/>
			<point x="505" y="367" type="curve" smooth="yes"/>
			<point x="505" y="461"/>
			<point x="412" y="503"/>
			<point x="278" y="503" type="curve" smooth="yes"/>
			<point x="195" y="503"/>
			<point x="127" y="481"/>
			<point x="65" y="439" type="curve"/>
			<point x="109" y="363" type="line"/>
			<point x="162" y="400"/>
			<point x="207" y="414"/>
			<point x="270" y="414" type="curve" smooth="yes"/>
			<point x="356" y="414"/>
			<point x="393" y="393"/>
			<point x="393" y="354" type="curve" smooth="yes"/>
			<point x="393" y="315"/>
			<point x="356" y="294"/>
			<point x="283" y="294" type="curve" smooth="yes"/>
			<point x="191" y="294" type="line"/>
			<point x="191" y="212" type="line"/>
			<point x="293" y="212" type="line" smooth="yes"/>
			<point x="372" y="212"/>
			<point x="413" y="193"/>
			<point x="413" y="149" type="curve" smooth="yes"/>
			<point x="413" y="103"/>
			<point x="366" y="77"/>
			<point x="269" y="77" type="curve" smooth="yes"/>
			<point x="216" y="77"/>
			<point x="157" y="92"/>
			<point x="102" y="134" type="curve"/>
			<point x="55" y="61" type="line"/>
			<point x="129" y="4"/>
			<point x="200" y="-12"/>
		</contour>
	</outline>
	<anchor name="aboveLC" x="308" y="512"/>
</glyph>
<glyph name="ka" format="2">
	<unicode hex="043A"/>
	<advance width="600"/>
	<outline>
		<contour>
			<point x="93" y="0" type="line"/>
			<point x="208" y="0" type="line"/>
			<point x="208" y="208" type="line"/>
			<point x="311" y="208" type="line"/>
			<point x="444" y="0" type="line"/>
			<point x="571" y="0" type="line"/>
			<point x="369" y="300" type="line"/>
			<point x="208" y="300" type="line"/>
			<point x="208" y="491" type="line"/>
			<point x="93" y="491" type="line"/>
		</contour>
		<contour>
			<point x="386" y="235" type="line"/>
			<point x="438" y="335" type="line" smooth="yes"/>
			<point x="463" y="384"/>
			<point x="480" y="393"/>
			<point x="504" y="393" type="curve" smooth="yes"/>
			<point x="514" y="393"/>
			<point x="520" y="391"/>
			<point x="528" y="389" type="curve"/>
			<point x="547" y="496" type="line"/>
			<point x="535" y="501"/>
			<point x="521" y="503"/>
			<point x="506" y="503" type="curve" smooth="yes"/>
			<point x="444" y="503"/>
			<point x="406" y="482"/>
			<point x="363" y="399" type="curve" smooth="yes"/>
			<point x="288" y="256" type="line"/>
		</contour>
	</outline>
	<anchor name="aboveLC" x="320" y="512"/>
</glyph>
<glyph name="el" format="2">
	<unicode hex="043B"/>
	<advance width="600"/>
	<outline>
		<contour>
			<point x="73" y="-12" type="curve" smooth="yes"/>
			<point x="157" y="-12"/>
			<point x="206" y="46"/>
			<point x="221" y="155" type="curve" smooth="yes"/>
			<point x="232" y="236"/>
			<point x="242" y="319"/>
			<point x="251" y="400" type="curve"/>
			<point x="395" y="400" type="line"/>
			<point x="395" y="0" type="line"/>
			<point x="510" y="0" type="line"/>
			<point x="510" y="491" type="line"/>
			<point x="160" y="491" type="line"/>
			<point x="148" y="389"/>
			<point x="137" y="288"/>
			<point x="124" y="186" type="curve" smooth="yes"/>
			<point x="117" y="124"/>
			<point x="96" y="98"/>
			<point x="65" y="98" type="curve" smooth="yes"/>
			<point x="56" y="98"/>
			<point x="49" y="100"/>
			<point x="42" y="102" type="curve"/>
			<point x="22" y="-2" type="line"/>
			<point x="38" y="-9"/>
			<point x="53" y="-12"/>
		</contour>
	</outline>
	<anchor name="aboveLC" x="346" y="512"/>
</glyph>
<glyph name="te" format="2">
	<unicode hex="0442"/>
	<advance width="600"/>
	<outline>
		<contour>
			<point x="242" y="0" type="line"/>
			<point x="358" y="0" type="line"/>
			<point x="358" y="400" type="line"/>
			<point x="542" y="400" type="line"/>
			<point x="542" y="491" type="line"/>
			<point x="58" y="491" type="line"/>
			<point x="58" y="400" type="line"/>
			<point x="242" y="400" type="line"/>
		</contour>
	</outline>
	<anchor name="aboveLC" x="300" y="512"/>
</glyph>
<glyph name="tse" format="2">
	<unicode hex="0446"/>
	<advance width="600"/>
	<outline>
		<contour>
			<point x="83" y="0" type="line"/>
			<point x="502" y="0" type="line"/>
			<point x="502" y="491" type="line"/>
			<point x="387" y="491" type="line"/>
			<point x="387" y="92" type="line"/>
			<point x="198" y="92" type="line"/>
			<point x="198" y="491" type="line"/>
			<point x="83" y="491" type="line"/>
		</contour>
		<contour>
			<point x="466" y="-172" type="line"/>
			<point x="566" y="-172" type="line"/>
			<point x="577" y="17" type="line"/>
			<point x="577" y="92" type="line"/>
			<point x="432" y="92" type="line"/>
			<point x="432" y="0" type="line"/>
			<point x="466" y="0" type="line"/>
		</contour>
	</outline>
	<anchor name="aboveLC" x="298" y="512"/>
</glyph>
<glyph name="che" format="2">
	<unicode hex="0447"/>
	<advance width="600"/>
	<outline>
		<contour>
			<point x="390" y="0" type="line"/>
			<point x="506" y="0" type="line"/>
			<point x="506" y="491" type="line"/>
			<point x="390" y="491" type="line"/>
			<point x="390" y="273" type="line"/>
			<point x="363" y="267"/>
			<point x="341" y="264"/>
			<point x="311" y="264" type="curve" smooth="yes"/>
			<point x="226" y="264"/>
			<point x="191" y="293"/>
			<point x="191" y="363" type="curve" smooth="yes"/>
			<point x="191" y="491" type="line"/>
			<point x="76" y="491" type="line"/>
			<point x="76" y="363" type="line" smooth="yes"/>
			<point x="76" y="224"/>
			<point x="158" y="172"/>
			<point x="286" y="172" type="curve" smooth="yes"/>
			<point x="335" y="172"/>
			<point x="355" y="175"/>
			<point x="390" y="183" type="curve"/>
		</contour>
	</outline>
	<anchor name="aboveLC" x="306" y="512"/>
</glyph>
<glyph name="soft" format="2">
	<unicode hex="044C"/>
	<advance width="600"/>
	<outline>
		<contour>
			<point x="103" y="0" type="line"/>
			<point x="327" y="0" type="line" smooth="yes"/>
			<point x="449" y="0"/>
			<point x="536" y="45"/>
			<point x="536" y="164" type="curve" smooth="yes"/>
			<point x="536" y="278"/>
			<point x="449" y="323"/>
			<point x="327" y="323" type="curve" smooth="yes"/>
			<point x="218" y="323" type="line"/>
			<point x="218" y="491" type="line"/>
			<point x="103" y="491" type="line"/>
		</contour>
		<contour>
			<point x="218" y="89" type="line"/>
			<point x="218" y="236" type="line"/>
			<point x="320" y="236" type="line" smooth="yes"/>
			<point x="391" y="236"/>
			<point x="425" y="213"/>
			<point x="425" y="164" type="curve" smooth="yes"/>
			<point x="425" y="113"/>
			<point x="391" y="89"/>
			<point x="320" y="89" type="curve" smooth="yes"/>
		</contour>
	</outline>
	<anchor name="aboveLC" x="162" y="512"/>
</glyph>
<glyph name="yat" format="2">
	<unicode hex="0463"/>
	<advance width="600"/>
	<outline>
		<contour>
			<point x="178" y="0" type="line"/>
			<point x="350" y="0" type="line" smooth="yes"/>
			<point x="468" y="0"/>
			<point x="554" y="45"/>
			<point x="554" y="163" type="curve" smooth="yes"/>
			<point x="554" y="278"/>
			<point x="468" y="323"/>
			<point x="350" y="323" type="curve" smooth="yes"/>
			<point x="294" y="323" type="line"/>
			<point x="294" y="432" type="line"/>
			<point x="463" y="432" type="line"/>
			<point x="463" y="524" type="line"/>
			<point x="294" y="524" type="line"/>
			<point x="294" y="625" type="line"/>
			<point x="178" y="625" type="line"/>
			<point x="178" y="524" type="line"/>
			<point x="36" y="524" type="line"/>
			<point x="36" y="432" type="line"/>
			<point x="178" y="432" type="line"/>
		</contour>
		<contour>
			<point x="294" y="89" type="line"/>
			<point x="294" y="236" type="line"/>
			<point x="343" y="236" type="line" smooth="yes"/>
			<point x="410" y="236"/>
			<point x="442" y="213"/>
			<point x="442" y="164" type="curve" smooth="yes"/>
			<point x="442" y="113"/>
			<point x="410" y="89"/>
			<point x="343" y="89" type="curve" smooth="yes"/>
		</contour>
	</outline>
</glyph>
<glyph name="Izhitsa" format="2">
	<unicode hex="0474"/>
	<advance width="600"/>
	<outline>
		<contour>
			<point x="225" y="0" type="line"/>
			<point x="369" y="0" type="line"/>
			<point x="504" y="488" type="line" smooth="yes"/>
			<point x="516" y="531"/>
			<point x="532" y="556"/>
			<point x="561" y="556" type="curve" smooth="yes"/>
			<point x="572" y="556"/>
			<point x="582" y="553"/>
			<point x="589" y="550" type="curve"/>
			<point x="611" y="656" type="line"/>
			<point x="593" y="663"/>
			<point x="579" y="666"/>
			<point x="551" y="666" type="curve" smooth="yes"/>
			<point x="468" y="666"/>
			<point x="428" y="619"/>
			<point x="400" y="509" type="curve" smooth="yes"/>
			<point x="350" y="325" type="line"/>
			<point x="330" y="250"/>
			<point x="317" y="187"/>
			<point x="298" y="112" type="curve"/>
			<point x="294" y="112" type="line"/>
			<point x="272" y="187"/>
			<point x="257" y="250"/>
			<point x="237" y="325" type="curve" smooth="yes"/>
			<point x="145" y="654" type="line"/>
			<point x="22" y="654" type="line"/>
		</contour>
	</outline>
	<anchor name="aboveUC" x="306" y="674"/>
</glyph>
<glyph name="Zhedescender" format="2">
	<unicode hex="0496"/>
	<advance width="600"/>
	<outline>
		<contour>
			<point x="524" y="-188" type="line"/>
			<point x="603" y="-188" type="line"/>
			<point x="614" y="26" type="line"/>
			<point x="614" y="98" type="line"/>
			<point x="508" y="98" type="line"/>
			<point x="508" y="0" type="line"/>
			<point x="524" y="0" type="line"/>
		</contour>
		<component base="Zhe"/>
	</outline>
</glyph>
<glyph name="b.sups" format="2">
	<unicode hex="1D47"/>
	<advance width="600"/>
	<outline>
		<contour>
			<point x="331" y="377" type="curve" smooth="yes"/>
			<point x="406" y="377"/>
			<point x="475" y="441"/>
			<point x="475" y="553" type="curve" smooth="yes"/>
			<point x="475" y="653"/>
			<point x="426" y="718"/>
			<point x="341" y="718" type="curve" smooth="yes"/>
			<point x="307" y="718"/>
			<point x="272" y="702"/>
			<point x="245" y="678" type="curve"/>
			<point x="247" y="732" type="line"/>
			<point x="247" y="854" type="line"/>
			<point x="163" y="854" type="line"/>
			<point x="163" y="385" type="line"/>
			<point x="229" y="385" type="line"/>
			<point x="236" y="418" type="line"/>
			<point x="238" y="418" type="line"/>
			<point x="266" y="392"/>
			<point x="300" y="377"/>
		</contour>
		<contour>
			<point x="312" y="446" type="curve" smooth="yes"/>
			<point x="293" y="446"/>
			<point x="269" y="452"/>
			<point x="247" y="470" type="curve"/>
			<point x="247" y="615" type="line"/>
			<point x="271" y="638"/>
			<point x="294" y="649"/>
			<point x="318" y="649" type="curve" smooth="yes"/>
			<point x="367" y="649"/>
			<point x="388" y="614"/>
			<point x="388" y="551" type="curve" smooth="yes"/>
			<point x="388" y="480"/>
			<point x="355" y="446"/>
		</contour>
	</outline>
</glyph>
<glyph name="c.sups" format="2">
	<unicode hex="1D9C"/>
	<advance width="600"/>
	<outline>
		<contour>
			<point x="347" y="377" type="curve" smooth="yes"/>
			<point x="387" y="377"/>
			<point x="430" y="391"/>
			<point x="464" y="418" type="curve"/>
			<point x="429" y="471" type="line"/>
			<point x="409" y="457"/>
			<point x="385" y="444"/>
			<point x="355" y="444" type="curve" smooth="yes"/>
			<point x="300" y="444"/>
			<point x="261" y="485"/>
			<point x="261" y="547" type="curve" smooth="yes"/>
			<point x="261" y="609"/>
			<point x="301" y="650"/>
			<point x="358" y="650" type="curve" smooth="yes"/>
			<point x="380" y="650"/>
			<point x="399" y="642"/>
			<point x="417" y="627" type="curve"/>
			<point x="457" y="680" type="line"/>
			<point x="433" y="701"/>
			<point x="399" y="718"/>
			<point x="354" y="718" type="curve" smooth="yes"/>
			<point x="259" y="718"/>
			<point x="175" y="655"/>
			<point x="175" y="547" type="curve" smooth="yes"/>
			<point x="175" y="440"/>
			<point x="249" y="377"/>
		</contour>
	</outline>
</glyph>
<glyph name="dagger" format="2">
	<unicode hex="2020"/>
	<advance width="600"/>
	<outline>
		<contour>
			<point x="253" y="-80" type="line"/>
			<point x="347" y="-80" type="line"/>
			<point x="340" y="464" type="line"/>
			<point x="492" y="458" type="line"/>
			<point x="492" y="552" type="line"/>
			<point x="340" y="545" type="line"/>
			<point x="347" y="712" type="line"/>
			<point x="253" y="712" type="line"/>
			<point x="260" y="545" type="line"/>
			<point x="108" y="552" type="line"/>
			<point x="108" y="458" type="line"/>
			<point x="260" y="464" type="line"/>
		</contour>
	</outline>
</glyph>
<glyph name="exclamquestion" format="2">
	<unicode hex="2049"/>
	<advance width="600"/>
	<outline>
		<contour>
			<point x="370" y="244" type="curve"/>
			<point x="465" y="244" type="line"/>
			<point x="448" y="364"/>
			<point x="576" y="407"/>
			<point x="576" y="548" type="curve" smooth="yes"/>
			<point x="576" y="627"/>
			<point x="515" y="682"/>
			<point x="432" y="682" type="curve" smooth="yes"/>
			<point x="378" y="682"/>
			<point x="330" y="661"/>
			<point x="291" y="619" type="curve"/>
			<point x="344" y="552" type="line"/>
			<point x="365" y="578"/>
			<point x="384" y="588"/>
			<point x="409" y="588" type="curve" smooth="yes"/>
			<point x="445" y="588"/>
			<point x="465" y="562"/>
			<point x="465" y="526" type="curve" smooth="yes"/>
			<point x="465" y="431"/>
			<point x="346" y="376"/>
		</contour>
		<contour>
			<point x="426" y="-12" type="curve" smooth="yes"/>
			<point x="475" y="-12"/>
			<point x="513" y="24"/>
			<point x="513" y="78" type="curve" smooth="yes"/>
			<point x="513" y="131"/>
			<point x="475" y="166"/>
			<point x="426" y="166" type="curve" smooth="yes"/>
			<point x="377" y="166"/>
			<point x="339" y="131"/>
			<point x="339" y="78" type="curve" smooth="yes"/>
			<point x="339" y="24"/>
			<point x="377" y="-12"/>
		</contour>
		<component base="exclam" xOffset="-140"/>
	</outline>
</glyph>
<glyph name="three.subs" format="2">
	<unicode hex="2083"/>
	<advance width="600"/>
	<outline>
		<contour>
			<point x="297" y="-194" type="curve" smooth="yes"/>
			<point x="381" y="-194"/>
			<point x="452" y="-147"/>
			<point x="452" y="-75" type="curve" smooth="yes"/>
			<point x="452" y="-26"/>
			<point x="418" y="8"/>
			<point x="365" y="20" type="curve"/>
			<point x="414" y="41"/>
			<point x="437" y="69"/>
			<point x="437" y="113" type="curve" smooth="yes"/>
			<point x="437" y="180"/>
			<point x="372" y="220"/>
			<point x="297" y="220" type="curve" smooth="yes"/>
			<point x="235" y="220"/>
			<point x="190" y="198"/>
			<point x="151" y="154" type="curve"/>
			<point x="201" y="110" type="line"/>
			<point x="222" y="136"/>
			<point x="252" y="153"/>
			<point x="283" y="153" type="curve" smooth="yes"/>
			<point x="325" y="153"/>
			<point x="352" y="133"/>
			<point x="352" y="102" type="curve" smooth="yes"/>
			<point x="352" y="65"/>
			<point x="317" y="42"/>
			<point x="250" y="42" type="curve"/>
			<point x="250" y="-9" type="line"/>
			<point x="330" y="-9"/>
			<point x="367" y="-30"/>
			<point x="367" y="-69" type="curve" smooth="yes"/>
			<point x="367" y="-106"/>
			<point x="332" y="-127"/>
			<point x="290" y="-127" type="curve" smooth="yes"/>
			<point x="249" y="-127"/>
			<point x="214" y="-110"/>
			<point x="189" y="-74" type="curve"/>
			<point x="135" y="-116" type="line"/>
			<point x="168" y="-165"/>
			<point x="227" y="-194"/>
		</contour>
	</outline>
</glyph>
<glyph name="colonmonetary" format="2">
	<unicode hex="20A1"/>
	<advance width="600"/>
	<outline>
		<contour>
			<point x="358" y="-12" type="curve" smooth="yes"/>
			<point x="439" y="-12"/>
			<point x="503" y="22"/>
			<point x="555" y="81" type="curve"/>
			<point x="489" y="141" type="line"/>
			<point x="454" y="101"/>
			<point x="416" y="78"/>
			<point x="365" y="78" type="curve" smooth="yes"/>
			<point x="263" y="78"/>
			<point x="204" y="169"/>
			<point x="204" y="320" type="curve" smooth="yes"/>
			<point x="204" y="467"/>
			<point x="261" y="558"/>
			<point x="366" y="558" type="curve" smooth="yes"/>
			<point x="413" y="558"/>
			<point x="448" y="537"/>
			<point x="481" y="507" type="curve"/>
			<point x="546" y="571" type="line"/>
			<point x="502" y="617"/>
			<point x="438" y="649"/>
			<point x="374" y="649" type="curve" smooth="yes"/>
			<point x="201" y="649"/>
			<point x="87" y="524"/>
			<point x="87" y="316" type="curve" smooth="yes"/>
			<point x="87" y="106"/>
			<point x="201" y="-12"/>
		</contour>
		<contour>
			<point x="222" y="-103" type="line"/>
			<point x="271" y="-110" type="line"/>
			<point x="371" y="741" type="line"/>
			<point x="322" y="748" type="line"/>
		</contour>
		<contour>
			<point x="324" y="-103" type="line"/>
			<point x="373" y="-110" type="line"/>
			<point x="473" y="741" type="line"/>
			<point x="424" y="748" type="line"/>
		</contour>
	</outline>
</glyph>
<glyph name="peseta" format="2">
	<unicode hex="20A7"/>
	<advance width="600"/>
	<outline>
		<contour>
			<point x="118" y="0" type="line"/>
			<point x="227" y="0" type="line"/>
			<point x="227" y="230" type="line"/>
			<point x="283" y="230" type="line" smooth="yes"/>
			<point x="412" y="230"/>
			<point x="516" y="294"/>
			<point x="516" y="433" type="curve" smooth="yes"/>
			<point x="516" y="583"/>
			<point x="415" y="636"/>
			<point x="283" y="636" type="curve" smooth="yes"/>
			<point x="118" y="636" type="line"/>
		</contour>
		<contour>
			<point x="227" y="305" type="line"/>
			<point x="227" y="562" type="line"/>
			<point x="273" y="562" type="line" smooth="yes"/>
			<point x="360" y="562"/>
			<point x="408" y="525"/>
			<point x="408" y="433" type="curve" smooth="yes"/>
			<point x="408" y="350"/>
			<point x="360" y="305"/>
			<point x="273" y="305" type="curve" smooth="yes"/>
		</contour>
		<contour>
			<point x="31" y="398" type="line"/>
			<point x="585" y="398" type="line"/>
			<point x="585" y="472" type="line"/>
			<point x="128" y="472" type="line"/>
			<point x="31" y="466" type="line"/>
		</contour>
	</outline>
</glyph>
<glyph name="trademark" format="2">
	<unicode hex="2122"/>
	<advance width="600"/>
	<outline>
		<contour>
			<point x="78" y="364" type="line"/>
			<point x="156" y="364" type="line"/>
			<point x="156" y="605" type="line"/>
			<point x="244" y="605" type="line"/>
			<point x="244" y="676" type="line"/>
			<point x="-9" y="676" type="line"/>
			<point x="-9" y="605" type="line"/>
			<point x="78" y="605" type="line"/>
		</contour>
		<contour>
			<point x="283" y="364" type="line"/>
			<point x="353" y="364" type="line"/>
			<point x="353" y="480" type="line"/>
			<point x="344" y="590" type="line"/>
			<point x="348" y="590" type="line"/>
			<point x="410" y="423" type="line"/>
			<point x="460" y="423" type="line"/>
			<point x="522" y="590" type="line"/>
			<point x="526" y="590" type="line"/>
			<point x="518" y="480" type="line"/>
			<point x="518" y="364" type="line"/>
			<point x="587" y="364" type="line"/>
			<point x="587" y="676" type="line"/>
			<point x="500" y="676" type="line"/>
			<point x="461" y="572" type="line"/>
			<point x="438" y="496" type="line"/>
			<point x="434" y="496" type="line"/>
			<point x="410" y="572" type="line"/>
			<point x="370" y="676" type="line"/>
			<point x="283" y="676" type="line"/>
		</contour>
	</outline>
</glyph>
<glyph name="lighttrpldashvertbxd" format="2">
	<unicode hex="2506"/>
	<advance width="600"/>
	<outline>
		<contour>
			<point x="246" y="567" type="line"/>
			<point x="354" y="567" type="line"/>
			<point x="354" y="833" type="line"/>
			<point x="246" y="833" type="line"/>
		</contour>
		<contour>
			<point x="246" y="167" type="line"/>
			<point x="354" y="167" type="line"/>
			<point x="354" y="433" type="line"/>
			<point x="246" y="433" type="line"/>
		</contour>
		<contour>
			<point x="246" y="-233" type="line"/>
			<point x="354" y="-233" type="line"/>
			<point x="354" y="33" type="line"/>
			<point x="246" y="33" type="line"/>
		</contour>
	</outline>
</glyph>
<glyph name="heavyquaddashvertbxd" format="2">
	<unicode hex="250B"/>
	<advance width="600"/>
	<outline>
		<contour>
			<point x="192" y="638" type="line"/>
			<point x="408" y="638" type="line"/>
			<point x="408" y="863" type="line"/>
			<point x="192" y="863" type="line"/>
		</contour>
		<contour>
			<point x="192" y="338" type="line"/>
			<point x="408" y="338" type="line"/>
			<point x="408" y="563" type="line"/>
			<point x="192" y="563" type="line"/>
		</contour>
		<contour>
			<point x="192" y="38" type="line"/>
			<point x="408" y="38" type="line"/>
			<point x="408" y="263" type="line"/>
			<point x="192" y="263" type="line"/>
		</contour>
		<contour>
			<point x="192" y="-263" type="line"/>
			<point x="408" y="-263" type="line"/>
			<point x="408" y="-38" type="line"/>
			<point x="192" y="-38" type="line"/>
		</contour>
	</outline>
</glyph>
<glyph name="lightdnrightbxd" format="2">
	<unicode hex="250C"/>
	<advance width="600"/>
	<outline>
		<contour>
			<point x="654" y="246" type="line"/>
			<point x="654" y="354" type="line"/>
			<point x="246" y="354" type="line"/>
			<point x="246" y="-400" type="line"/>
			<point x="354" y="-400" type="line"/>
			<point x="354" y="246" type="line"/>
		</contour>
	</outline>
</glyph>
<glyph name="upheavyleftlightbxd" format="2">
	<unicode hex="251A"/>
	<advance width="600"/>
	<outline>
		<contour>
			<point x="-54" y="246" type="line"/>
			<point x="408" y="246" type="line"/>
			<point x="408" y="1000" type="line"/>
			<point x="192" y="1000" type="line"/>
			<point x="192" y="354" type="line"/>
			<point x="-54" y="354" type="line"/>
		</contour>
	</outline>
</glyph>
<glyph name="lightvertrightbxd" format="2">
	<unicode hex="251C"/>
	<advance width="600"/>
	<outline>
		<contour>
			<point x="654" y="246" type="line"/>
			<point x="654" y="354" type="line"/>
			<point x="354" y="354" type="line"/>
			<point x="354" y="1000" type="line"/>
			<point x="246" y="1000" type="line"/>
			<point x="246" y="-400" type="line"/>
			<point x="354" y="-400" type="line"/>
			<point x="354" y="246" type="line"/>
		</contour>
	</outline>
</glyph>
<glyph name="dnlighthorzheavybxd" format="2">
	<unicode hex="252F"/>
	<advance width="600"/>
	<outline>
		<contour>
			<point x="654" y="192" type="line"/>
			<point x="654" y="408" type="line"/>
			<point x="-54" y="408" type="line"/>
			<point x="-54" y="192" type="line"/>
			<point x="246" y="192" type="line"/>
			<point x="246" y="-400" type="line"/>
			<point x="354" y="-400" type="line"/>
			<point x="354" y="192" type="line"/>
		</contour>
	</outline>
</glyph>
<glyph name="filledrect" format="2">
	<unicode hex="25AC"/>
	<advance width="600"/>
	<outline>
		<contour>
			<point x="0" y="187" type="line"/>
			<point x="600" y="187" type="line"/>
			<point x="600" y="319" type="line"/>
			<point x="0" y="319" type="line"/>
		</contour>
	</outline>
</glyph>
<glyph name="circleblack" format="2">
	<unicode hex="25CF"/>
	<advance width="600"/>
	<outline>
		<contour>
			<point x="300" y="98" type="curve" smooth="yes"/>
			<point x="435" y="98"/>
			<point x="535" y="197"/>
			<point x="535" y="330" type="curve" smooth="yes"/>
			<point x="535" y="463"/>
			<point x="435" y="562"/>
			<point x="300" y="562" type="curve" smooth="yes"/>
			<point x="165" y="562"/>
			<point x="65" y="463"/>
			<point x="65" y="330" type="curve" smooth="yes"/>
			<point x="65" y="197"/>
			<point x="165" y="98"/>
		</contour>
	</outline>
</glyph>
<glyph name="musicalnotedbl" format="2">
	<unicode hex="266B"/>
	<advance width="600"/>
	<outline>
		<contour>
			<point x="101" y="-26" type="curve" smooth="yes"/>
			<point x="201" y="-26"/>
			<point x="277" y="37"/>
			<point x="277" y="157" type="curve"/>
			<point x="277" y="523" type="line"/>
			<point x="272" y="674" type="line"/>
			<point x="208" y="674" type="line"/>
			<point x="208" y="168" type="line"/>
			<point x="199" y="174"/>
			<point x="174" y="180"/>
			<point x="147" y="180" type="curve" smooth="yes"/>
			<point x="60" y="180"/>
			<point x="-3" y="122"/>
			<point x="-3" y="55" type="curve" smooth="yes"/>
			<point x="-3" y="0"/>
			<point x="48" y="-26"/>
		</contour>
		<contour>
			<point x="430" y="22" type="curve" smooth="yes"/>
			<point x="530" y="22"/>
			<point x="606" y="85"/>
			<point x="606" y="205" type="curve"/>
			<point x="606" y="722" type="line"/>
			<point x="537" y="718" type="line"/>
			<point x="537" y="216" type="line"/>
			<point x="528" y="222"/>
			<point x="503" y="228"/>
			<point x="476" y="228" type="curve" smooth="yes"/>
			<point x="389" y="228"/>
			<point x="326" y="170"/>
			<point x="326" y="103" type="curve" smooth="yes"/>
			<point x="326" y="48"/>
			<point x="376" y="22"/>
		</contour>
		<contour>
			<point x="208" y="511" type="line"/>
			<point x="606" y="571" type="line"/>
			<point x="606" y="734" type="line"/>
			<point x="208" y="674" type="line"/>
		</contour>
	</outline>
</glyph>
<glyph name="bracketrightwhite" format="2">
	<unicode hex="27E7"/>
	<advance width="600"/>
	<outline>
		<contour>
			<point x="101" y="-152" type="line"/>
			<point x="433" y="-152" type="line"/>
			<point x="433" y="708" type="line"/>
			<point x="101" y="708" type="line"/>
			<point x="101" y="645" type="line"/>
			<point x="254" y="645" type="line"/>
			<point x="254" y="-89" type="line"/>
			<point x="101" y="-89" type="line"/>
		</contour>
		<contour>
			<point x="318" y="-89" type="line"/>
			<point x="318" y="645" type="line"/>
			<point x="364" y="645" type="line"/>
			<point x="364" y="-89" type="line"/>
		</contour>
	</outline>
</glyph>
<glyph name="brackhalftopright" format="2">
	<unicode hex="2E23"/>
	<advance width="600"/>
	<outline>
		<contour>
			<point x="298" y="278" type="line"/>
			<point x="388" y="278" type="line"/>
			<point x="388" y="700" type="line"/>
			<point x="101" y="700" type="line"/>
			<point x="101" y="637" type="line"/>
			<point x="298" y="637" type="line"/>
		</contour>
	</outline>
</glyph>
<glyph name="acutecmb.cap" format="2">
	<advance width="600"/>
	<outline>
		<contour>
			<point x="267" y="688" type="line"/>
			<point x="435" y="805" type="line"/>
			<point x="372" y="881" type="line"/>
			<point x="216" y="746" type="line"/>
		</contour>
	</outline>
	<anchor name="_aboveUC" x="300" y="674"/>
</glyph>
<glyph name="brevegravecmb" format="2">
	<advance width="600"/>
	<outline>
		<contour>
			<point x="300" y="571" type="curve" smooth="yes"/>
			<point x="411" y="571"/>
			<point x="458" y="644"/>
			<point x="463" y="726" type="curve"/>
			<point x="401" y="737" type="line"/>
			<point x="393" y="686"/>
			<point x="362" y="639"/>
			<point x="300" y="639" type="curve" smooth="yes"/>
			<point x="238" y="639"/>
			<point x="207" y="686"/>
			<point x="199" y="737" type="curve"/>
			<point x="137" y="726" type="line"/>
			<point x="142" y="644"/>
			<point x="189" y="571"/>
		</contour>
		<contour>
			<point x="298" y="689" type="line"/>
			<point x="350" y="726" type="line"/>
			<point x="259" y="858" type="line"/>
			<point x="190" y="806" type="line"/>
		</contour>
	</outline>
	<anchor name="_aboveLC" x="300" y="512"/>
</glyph>
<glyph name="circumflexbrevecmb" format="2">
	<advance width="600"/>
	<outline>
		<contour>
			<point x="207" y="567" type="line"/>
			<point x="298" y="628" type="line"/>
			<point x="302" y="628" type="line"/>
			<point x="393" y="567" type="line"/>
			<point x="434" y="596" type="line"/>
			<point x="346" y="682" type="line"/>
			<point x="254" y="682" type="line"/>
			<point x="166" y="596" type="line"/>
		</contour>
		<contour>
			<point x="300" y="712" type="curve" smooth="yes"/>
			<point x="385" y="712"/>
			<point x="420" y="756"/>
			<point x="429" y="806" type="curve"/>
			<point x="383" y="820" type="line"/>
			<point x="374" y="792"/>
			<point x="353" y="769"/>
			<point x="300" y="769" type="curve" smooth="yes"/>
			<point x="247" y="769"/>
			<point x="226" y="792"/>
			<point x="217" y="820" type="curve"/>
			<point x="171" y="806" type="line"/>
			<point x="180" y="756"/>
			<point x="215" y="712"/>
		</contour>
	</outline>
	<anchor name="_aboveLC" x="300" y="512"/>
</glyph>
<glyph name="dblgravecmb.cap" format="2">
	<advance width="600"/>
	<outline>
		<contour>
			<point x="195" y="698" type="line"/>
			<point x="253" y="726" type="line"/>
			<point x="156" y="883" type="line"/>
			<point x="81" y="840" type="line"/>
		</contour>
		<contour>
			<point x="369" y="698" type="line"/>
			<point x="427" y="726" type="line"/>
			<point x="330" y="883" type="line"/>
			<point x="255" y="840" type="line"/>
		</contour>
	</outline>
	<anchor name="_aboveUC" x="300" y="674"/>
</glyph>
<glyph name="dieresismacroncmb.cap" format="2">
	<advance width="600"/>
	<outline>
		<contour>
			<point x="193" y="708" type="curve" smooth="yes"/>
			<point x="224" y="708"/>
			<point x="247" y="730"/>
			<point x="247" y="761" type="curve" smooth="yes"/>
			<point x="247" y="792"/>
			<point x="224" y="815"/>
			<point x="193" y="815" type="curve" smooth="yes"/>
			<point x="162" y="815"/>
			<point x="140" y="792"/>
			<point x="140" y="761" type="curve" smooth="yes"/>
			<point x="140" y="730"/>
			<point x="162" y="708"/>
		</contour>
		<contour>
			<point x="407" y="708" type="curve" smooth="yes"/>
			<point x="438" y="708"/>
			<point x="460" y="730"/>
			<point x="460" y="761" type="curve" smooth="yes"/>
			<point x="460" y="792"/>
			<point x="438" y="815"/>
			<point x="407" y="815" type="curve" smooth="yes"/>
			<point x="376" y="815"/>
			<point x="353" y="792"/>
			<point x="353" y="761" type="curve" smooth="yes"/>
			<point x="353" y="730"/>
			<point x="376" y="708"/>
		</contour>
		<contour>
			<point x="157" y="866" type="line"/>
			<point x="443" y="866" type="line"/>
			<point x="443" y="924" type="line"/>
			<point x="157" y="924" type="line"/>
		</contour>
	</outline>
	<anchor name="_aboveUC" x="300" y="674"/>
</glyph>
<glyph name="dotaccentcmb.cap" format="2">
	<advance width="600"/>
	<outline>
		<contour>
			<point x="300" y="707" type="curve" smooth="yes"/>
			<point x="343" y="707"/>
			<point x="375" y="736"/>
			<point x="375" y="778" type="curve" smooth="yes"/>
			<point x="375" y="820"/>
			<point x="343" y="848"/>
			<point x="300" y="848" type="curve" smooth="yes"/>
			<point x="257" y="848"/>
			<point x="225" y="820"/>
			<point x="225" y="778" type="curve" smooth="yes"/>
			<point x="225" y="736"/>
			<point x="257" y="707"/>
		</contour>
	</outline>
	<anchor name="_aboveUC" x="300" y="674"/>
</glyph>
<glyph name="eacute.sups" format="2">
	<advance width="600"/>
	<outline>
		<contour>
			<point x="300" y="756" type="line"/>
			<point x="419" y="866" type="line"/>
			<point x="361" y="920" type="line"/>
			<point x="256" y="797" type="line"/>
		</contour>
		<component base="e.sups"/>
	</outline>
</glyph>
<glyph name="egrave.sups" format="2">
	<advance width="600"/>
	<outline>
		<contour>
			<point x="322" y="756" type="line"/>
			<point x="366" y="797" type="line"/>
			<point x="260" y="920" type="line"/>
			<point x="203" y="866" type="line"/>
		</contour>
		<component base="e.sups"/>
	</outline>
</glyph>
<glyph name="g.supa" format="2">
	<advance width="600"/>
	<outline>
		<contour>
			<point x="280" y="252" type="curve" smooth="yes"/>
			<point x="385" y="252"/>
			<point x="445" y="299"/>
			<point x="445" y="382" type="curve" smooth="yes"/>
			<point x="445" y="710" type="line"/>
			<point x="377" y="710" type="line"/>
			<point x="370" y="680" type="line"/>
			<point x="368" y="680" type="line"/>
			<point x="342" y="706"/>
			<point x="312" y="718"/>
			<point x="277" y="718" type="curve" smooth="yes"/>
			<point x="205" y="718"/>
			<point x="133" y="653"/>
			<point x="133" y="553" type="curve" smooth="yes"/>
			<point x="133" y="456"/>
			<point x="188" y="391"/>
			<point x="272" y="391" type="curve" smooth="yes"/>
			<point x="306" y="391"/>
			<point x="339" y="407"/>
			<point x="363" y="428" type="curve"/>
			<point x="361" y="381" type="line" smooth="yes"/>
			<point x="360" y="343"/>
			<point x="334" y="317"/>
			<point x="280" y="317" type="curve" smooth="yes"/>
			<point x="251" y="317"/>
			<point x="215" y="325"/>
			<point x="184" y="344" type="curve"/>
			<point x="155" y="288" type="line"/>
			<point x="192" y="264"/>
			<point x="242" y="252"/>
		</contour>
		<contour>
			<point x="293" y="459" type="curve" smooth="yes"/>
			<point x="248" y="459"/>
			<point x="218" y="494"/>
			<point x="218" y="554" type="curve" smooth="yes"/>
			<point x="218" y="614"/>
			<point x="253" y="649"/>
			<point x="294" y="649" type="curve" smooth="yes"/>
			<point x="315" y="649"/>
			<point x="339" y="642"/>
			<point x="361" y="624" type="curve"/>
			<point x="361" y="494" type="line"/>
			<point x="340" y="469"/>
			<point x="318" y="459"/>
		</contour>
	</outline>
</glyph>
<glyph name="gravecmb.cap" format="2">
	<advance width="600"/>
	<outline>
		<contour>
			<point x="333" y="688" type="line"/>
			<point x="384" y="746" type="line"/>
			<point x="228" y="881" type="line"/>
			<point x="165" y="805" type="line"/>
		</contour>
	</outline>
	<anchor name="_aboveUC" x="300" y="674"/>
</glyph>
<glyph name="hhook.sups" format="2">
	<advance width="600"/>
	<outline>
		<contour>
			<point x="165" y="385" type="line"/>
			<point x="250" y="385" type="line"/>
			<point x="250" y="597" type="line"/>
			<point x="277" y="622"/>
			<point x="296" y="636"/>
			<point x="324" y="636" type="curve" smooth="yes"/>
			<point x="365" y="636"/>
			<point x="380" y="614"/>
			<point x="380" y="566" type="curve" smooth="yes"/>
			<point x="380" y="385" type="line"/>
			<point x="464" y="385" type="line"/>
			<point x="464" y="577" type="line" smooth="yes"/>
			<point x="464" y="659"/>
			<point x="431" y="708"/>
			<point x="357" y="708" type="curve" smooth="yes"/>
			<point x="308" y="708"/>
			<point x="273" y="683"/>
			<point x="245" y="656" type="curve"/>
			<point x="248" y="728" type="line"/>
			<point x="250" y="768"/>
			<point x="267" y="792"/>
			<point x="307" y="792" type="curve" smooth="yes"/>
			<point x="326" y="792"/>
			<point x="343" y="787"/>
			<point x="360" y="780" type="curve"/>
			<point x="377" y="842" type="line"/>
			<point x="354" y="850"/>
			<point x="326" y="858"/>
			<point x="297" y="858" type="curve" smooth="yes"/>
			<point x="205" y="858"/>
			<point x="165" y="804"/>
			<point x="165" y="727" type="curve"/>
		</contour>
	</outline>
</glyph>
<glyph name="istroke.d" format="2">
	<advance width="600"/>
	<outline>
		<contour>
			<point x="123" y="199" type="line"/>
			<point x="561" y="199" type="line"/>
			<point x="561" y="268" type="line"/>
			<point x="298" y="268" type="line"/>
			<point x="123" y="262" type="line"/>
		</contour>
		<component base="dotlessi"/>
	</outline>
	<anchor name="aboveLC" x="347" y="512"/>
	<anchor name="belowLC" x="347" y="-20"/>
</glyph>
<glyph name="istroke.da" format="2">
	<advance width="600"/>
	<outline>
		<contour>
			<point x="109" y="218" type="line"/>
			<point x="547" y="218" type="line"/>
			<point x="547" y="288" type="line"/>
			<point x="281" y="288" type="line"/>
			<point x="109" y="282" type="line"/>
		</contour>
		<component base="dotlessi.a"/>
	</outline>
	<anchor name="aboveLC" x="327" y="512"/>
	<anchor name="belowLC" x="327" y="-20"/>
</glyph>
<glyph name="l.a" format="2">
	<advance width="600"/>
	<outline>
		<contour>
			<point x="277" y="0" type="line"/>
			<point x="392" y="0" type="line"/>
			<point x="392" y="706" type="line"/>
			<point x="112" y="706" type="line"/>
			<point x="112" y="615" type="line"/>
			<point x="277" y="615" type="line"/>
		</contour>
		<contour>
			<point x="90" y="0" type="line"/>
			<point x="564" y="0" type="line"/>
			<point x="564" y="92" type="line"/>
			<point x="90" y="92" type="line"/>
		</contour>
	</outline>
	<anchor name="aboveUC" x="330" y="734"/>
	<anchor name="baseLC" x="334" y="0"/>
	<anchor name="belowLC" x="326" y="-20"/>
	<anchor name="center" x="334" y="376"/>
</glyph>
<glyph name="macronacutecmb.cap" format="2">
	<advance width="600"/>
	<outline>
		<contour>
			<point x="157" y="728" type="line"/>
			<point x="443" y="728" type="line"/>
			<point x="443" y="804" type="line"/>
			<point x="157" y="804" type="line"/>
		</contour>
		<contour>
			<point x="275" y="830" type="line"/>
			<point x="423" y="923" type="line"/>
			<point x="374" y="988" type="line"/>
			<point x="235" y="883" type="line"/>
		</contour>
	</outline>
	<anchor name="_aboveUC" x="300" y="674"/>
</glyph>
<glyph name="macroncmb.cap" format="2">
	<advance width="600"/>
	<outline>
		<contour>
			<point x="157" y="728" type="line"/>
			<point x="443" y="728" type="line"/>
			<point x="443" y="804" type="line"/>
			<point x="157" y="804" type="line"/>
		</contour>
	</outline>
	<anchor name="_aboveUC" x="300" y="674"/>
</glyph>
<glyph name="one.onum" format="2">
	<advance width="600"/>
	<outline>
		<contour>
			<point x="88" y="0" type="line"/>
			<point x="536" y="0" type="line"/>
			<point x="536" y="94" type="line"/>
			<point x="380" y="94" type="line"/>
			<point x="380" y="576" type="line"/>
			<point x="296" y="576" type="line"/>
			<point x="250" y="552"/>
			<point x="204" y="535"/>
			<point x="124" y="524" type="curve"/>
			<point x="124" y="451" type="line"/>
			<point x="265" y="451" type="line"/>
			<point x="265" y="94" type="line"/>
			<point x="88" y="94" type="line"/>
		</contour>
	</outline>
</glyph>
<glyph name="three.cap" format="2">
	<advance width="600"/>
	<outline>
		<contour>
			<point x="283" y="-12" type="curve" smooth="yes"/>
			<point x="413" y="-12"/>
			<point x="525" y="57"/>
			<point x="525" y="176" type="curve" smooth="yes"/>
			<point x="525" y="263"/>
			<point x="457" y="319"/>
			<point x="374" y="339" type="curve"/>
			<point x="374" y="343" type="line"/>
			<point x="452" y="370"/>
			<point x="503" y="420"/>
			<point x="503" y="494" type="curve" smooth="yes"/>
			<point x="503" y="604"/>
			<point x="410" y="666"/>
			<point x="280" y="666" type="curve" smooth="yes"/>
			<point x="198" y="666"/>
			<point x="128" y="634"/>
			<point x="70" y="586" type="curve"/>
			<point x="130" y="514" type="line"/>
			<point x="172" y="551"/>
			<point x="220" y="574"/>
			<point x="275" y="574" type="curve" smooth="yes"/>
			<point x="343" y="574"/>
			<point x="387" y="541"/>
			<point x="387" y="485" type="curve" smooth="yes"/>
			<point x="387" y="424"/>
			<point x="335" y="379"/>
			<point x="198" y="379" type="curve"/>
			<point x="198" y="295" type="line"/>
			<point x="355" y="295"/>
			<point x="409" y="251"/>
			<point x="409" y="183" type="curve" smooth="yes"/>
			<point x="409" y="119"/>
			<point x="351" y="82"/>
			<point x="273" y="82" type="curve" smooth="yes"/>
			<point x="204" y="82"/>
			<point x="146" y="113"/>
			<point x="104" y="152" type="curve"/>
			<point x="50" y="78" type="line"/>
			<point x="97" y="28"/>
			<point x="174" y="-12"/>
		</contour>
	</outline>
</glyph>
<glyph name="tildecmb.cap" format="2">
	<advance width="600"/>
	<outline>
		<contour>
			<point x="373" y="700" type="curve" smooth="yes"/>
			<point x="438" y="700"/>
			<point x="483" y="745"/>
			<point x="488" y="834" type="curve"/>
			<point x="412" y="840" type="line"/>
			<point x="407" y="800"/>
			<point x="392" y="782"/>
			<point x="370" y="782" type="curve" smooth="yes"/>
			<point x="330" y="782"/>
			<point x="300" y="846"/>
			<point x="227" y="846" type="curve" smooth="yes"/>
			<point x="162" y="846"/>
			<point x="117" y="802"/>
			<point x="112" y="713" type="curve"/>
			<point x="188" y="707" type="line"/>
			<point x="192" y="747"/>
			<point x="208" y="764"/>
			<point x="230" y="764" type="curve" smooth="yes"/>
			<point x="270" y="764"/>
			<point x="300" y="700"/>
		</contour>
	</outline>
	<anchor name="_aboveUC" x="300" y="674"/>
</glyph>
<glyph name="variacmb" format="2">
	<advance width="600"/>
	<outline>
		<contour>
			<point x="266" y="556" type="line"/>
			<point x="344" y="571" type="line"/>
			<point x="308" y="782" type="line"/>
			<point x="193" y="762" type="line"/>
		</contour>
	</outline>
	<anchor name="_aboveLC" x="300" y="512"/>
</glyph>
